<svg version="1.1" id="svg-map" xmlns="http://www.w3.org/2000/svg" xmlns:xlink="http://www.w3.org/1999/xlink" xml:space="preserve" viewBox="0 0 288000 1.8e5" image-rendering="optimizeQuality">
<g>
<a xlink:href="#prudente" name="Presidente prudente" cod="08">
	<path stroke="#fff" stroke-width="1" stroke-linecap="round" stroke-linejoin="round"  xmlns="http://www.w3.org/2000/svg" d="m5105 91595-109-259-30-240 13-130 30-134 224-353 607-857 578-525 213-170 52-26 1259-473 106-139 362-685 1346-547 216-68 295-93 1637-542 869-354 95-73 461-738 982-838 306-311 1627-1084 669-254 903-635 1185-335 555-372 17-16 419-341 712-259 706-620 888-280 846-431 614-113 323-168 194-148 211-443 705-494 195-137 1324-1207 316-609 115-139 94-59 435-277 986-1386 817-2778 318-634 1021-1115 378-113 132-172 341-138 503-608 1291-1133 199-567 19-442 691-1328 657-466 1152-324 281-460 538-483 736-1433 52-100 37-126 10-565-412-698-188-697-954-811-22-79-91-321 311-651 479-708 351-329 291-31 1213 257 612 116 939-430 136-177 408-743 672-504 232-728 92-623 375-837 1191-1041 111-195 72-203 3-66 15-303 101-876 293-992-179-177-303-1084-442-792-30-78-8-20 118-501-100-1020 64-269 33-103 322-174 647 29 651-143 283-169 200-352 569-246 435-900 109-754 151 65 12 25 8 229 143-92v272l281-92 214 132 58 196 108-109 245 197-12-151 157 103 85-144 91 90 64-63 228 429 209-18 28 171 136-70 146 354-103 124 58 299 210 83-19 254-166 138-19 160 256 116-19 317 86 9-24 122 170 13 307-5 2 141 137-8-116 91 35 113 177 8 19 146 206 92 274-81-8-101 262 15 32-54 87-179 156-2-192-101 342-238 237 64 178-164 303 151 61-102 348 232 13 133-244 92 253 478 415 196-27 219 86 25 313-90 176 162 469 44 238 254 153-128 265 123 127 197-121 61 61 67 212 6 146 224 252 94 226 29-66 207 145 90 180-48-10 87 121-48 131 163 312 68 110-120 225 117 15 114 91-68 222 147 340 39 471 488 307 25-39 103 98-32 37 115 216-36-43 207 154-32v182l268 168 480 23-45 74 134 94 265-142 266 198 126 19 24-148 298 179-75-166 329 163 91-29 183 199 93-61 12 99 105-95 324 401 162-8 238 211 86-45 30 109 120 18 18 106 339-4 173 276 165-115 706-19 195 381 175 67 404 326-52 80 450 176 262 490 243-13 265 158 303 83 618-307 358 44 359 200 651-344 227 18 246 425 821 428 146 192 444 70 169 52 259 362 11 184 177 114 516 280 342-58 270-164 263 13 826 450 115-23 35-31 630-126 212 439-138 27 26 139 449 288 44 462 157 48 19 134 270-162 477 99 148 213 177 382-234 192-14 190 145 207 455 102 172 162 573 31-43 147 112-104 330 72 78 233-79 113-110-32 95 102-179 123 194 194 200-250-100 140 89 92-1-17 421-647 88 94-153 232 37 135 332 64-58-298 209-188 250 63 138 109-31 257-116 98-196 77-62 119 126 71 116-26 5-121 120 166 207-218 248 268 359-185-141 257 52 121 124 27 327-191 180 129 613 31-52 216 917 538 276 108 297 411 243 150-56 328 231 500 307 75 182 105 97-371 178-23 112 273-50 288 176-79 162 817-149 508-535 882-128 375-37 77 131 317-81 374-744 275-81 40-599-11-123 422-245 96-113-352-330-226-350 766-113 491 315 501 196 801-195-76-140-8-245 198-126 293-242 211-574 510-192-18-340 295-154 496-367 47-42 92 79 443-312-1-120 155-409 297-424-77-455 525-594 79 527 171 409 254 17 156 469 181 1485 325 657 6 84 95 1097 233 84 234 40 9 21 673-467 1149-146 119 2 621 196 170-32 151 143 203 164 381-71 443-60 151-193 14-180 412 21 372 221 252-115 290-237 42-1 159 32 288 141 125-228 83 135 345-50 203 315 311-44 311-279 257-209 463-325 210-91 291-239 142-122 356-298 1180 230 414-4 585-386 659-362 248 72 697-4 7-486 290-909-485-272 210-177 330 112 397-174 463 430 371-440 514-70 554-202 146-98 144 516 619-359 805 198 169 239 151-209 1027 90 247 272 121 218 452-205 436-130-120-79 135-113-53-194 101-126-193-199 168-104-159-55 187-504-362-199 208-311-230 36-127-205-189-191 25-39 192-168 84-173-171-97 85 86 139-111 60 90 150-133 133 81 111-201 69-9 162-316-96-95 192-85-98 3-613-358-553-137-97-179-956 5-493-405-535 268-243 50-465-486-783-390-31-360 186-582-347-157-316 338-327-130-313 332-269-1347 2-267 184-898 235-395 109-744-14-153-76 16-292-308 79-981 895-413 207-262 307-436 269-1552 399-56-109-38 12 45 221-175 312-8 489-97 65 81 147-101-15 24 118-145 64 50 173-156 383 80 260-72 417 72 328 130 77-130 66-43 226-116 4 70 185-221 175-76 244-300 96-24-2-813-212-352-92-902-198-397 225-478 76-706-445-669-8h-24l-28 12-701 690-42 38-836 415-568-16-263-99-700 175-349 147-412-174-533-182-800-717-375-121-79-25-988-20-582 110-560 266-589-11h-1l-238-235-229-975-61-142-317-31h-23l-220-206-214-42-410-57-2283 548-212-13-57-10-551-100-497-467-238-224-139-124-1203-1074-631-121-1157-553-935-175-41-8-59-11-759-17-1041-544-558-141-141 2-357 57-61 21-169 130-125 126-56 57-365 617-114 616-5 27-273 861-14 251 161 1204-772 270-484 170-680 445-136 32-68-92-79-188-69-845-299-563-318-138-877 154-359 221-450 278-665-98-1347-135-1106-369-496-177-183-66-249-57-274 27-84 19-72 15-297 105-973 555-302 93-106 13-625-439-419-156-106-39-828-755-407-628-90-59-110-18-549 177-1814 1228-1188 485-13-1-644-22-864-446-920-293-92-17-378-69-630-96-912 378-419-39-1457-1109-600-205-1478 151-386 182-369 307-350 294-137 70-373 192-435 441-463 381-659 330-405 529-210-633-329-497z">
	</path>
</a>
<a  xlink:href="#riopreto" name="São José do Rio Preto " cod="01">
	<path stroke="#fff" stroke-width="1" stroke-linecap="round" stroke-linejoin="round"  d="m67236 18808 987-744 330-506 4-18 297-1072 606-1476 849-1695 24-48 19-290 1055-1577 60-34 476-59 120-75 360-439 676-368 115-273 346-127 338-7 146-4 298-38 570-530 288-120 830-287 691-491 31-14 323-148 1813-323 1293-357 224-72 512-165 86-71 642-940 610-413 319-167 617-915 320-335 433-76 461-93 494-255 439-185 554-19 403-315 443-186 539 199 547 242 693 307 1289 1290 490 285 133 311 506 110 415 91 241 22 107 40 813-163 1255 277 752-258 633-30 834 223 252 68 178 43 645-100 1118 27 99 3 286 103 421 271 815 740 206 142 80 27 362 120 541 170 1614-181 1709 564 385 126 40 19 486 39 621 57 630-419 1306-151 331-124 1020 27 134 3 1024 181 2201 19 349-73 101-55 642-349 738-200 712 36 239-166 850 187 638 250 332 812 164 282 908 644 552 149 2601 184 683-191 628-433 517-188 1003 46 343 166 105 107 52 51 63 312-40 531-440 226-666-64-389 371-346 1764-25 743-1 132 85 465 203 1553 1035 1898 210 612-1 329v20l833 1206 161 165 966 103 115 22 272 219 341-81 63-172 1126-682 419-449 5-9 963-1784 676-1780 256-113 949 1 294 74 833 368 258 272 364 1033 7 31 315 1699-75 632-146 3412 183 290 1974 1181 351-119 38-32 138 114-23 213-97 175-198 63-60 281 85 380 152 168-12 281 159 280 463 375 4 615 264 65 195 325 288 240 372 562-447 1679 111 184 68 440-9 224 224 22 141 207 372-118 247 78 153-123 263 148 273 974-124 519-322 218 252 358 299 119 230 327 690 123 101 298 364-23 185 143 185 273 64 376-49 87 160 275 95 251-68 472-262 271-311 15-245 218 40 335-248 486 249 410-307 230 293 501v203l-362 228-506 623-410 235 525 496 276-148 151 209 385 141-61 324 252-86-4 228 303 316 169-205 396 194 55 347 274 50 17 358 195 21-177 496-113 302-460 454-36 400-261 463-879 335-550 187-152 199-30 318 128 23 124 15 125 299 231 53-57 436 166 12 175 282 43 56 348 110 220 467 92 595 106 216 546 509 12 158 300 276-117 203-443 142-277 277-305 15-107 137-192-26-76 204 321 224-93 759 88 560-12 115 56 182-62 696-358 696-66 492-22 82 113 542-247 528-49 330-89 124-531 106-520-339-104-241-292 118-301-33-186-138-138 23-328-452-106 68-364-136-746 92-545-304-291-438-1404 847-100 854-618-2-180-139-152-160-122 165-66 608 108 384-274 113-834 771-687 163-14 139-440-77-636-487-192-255-215 115-232 460-362 244-318 748-433 41-228 295-312 127-186 770-264 199-87 313-302 192-75 386-143 141-504 69-409 291-302 73-248 382-313 49 460 1193 393 330-775-5-1073-382-518-748-677-540-347-1048-132-675-402-476-1122-352-610 163-11 7-495 146-252-64-797-611-1119-573-354-290-344-358-588-1069-633-575-82-256-57-149-280-54-282-263-537-951-614-111-568-504-332-146-944-71-330-36-407 465-304-49-116-131 108-428-23-184-297-128-259 55-242 246-94 47-95-105-511-893 96-322-94-201-242 15-481 281-614-318-39-11-390-68-377-396-546-164-462-109-242-315-391-14-484-397-957-305-175-386-594 210-624-160-665 56-289-121-310 22-844-481-928 86h-413l-651 195-698-348-454-395-36-36-141-162-151-630-286-423 70-316-87-165 309-210 13-197 137 74 139 9-89-68 234-120-17-187 321-30 87-299 266-154-261-271 81-28 31-218-93-115 154-310-12-265 363-200 10-271 519-469-90-172 192-287 596-529 35-90 5-13 339-150 130-336 216-98 302-1131-244-241-211 284-273-88-131-279-185 266-167-16 10-207-295-693-657-713-372-20-193-188-710 48-520-271-277 89-153-78-41 295 77 135-170 36 14 135-114-32-300 246-138-37 3 96-50-102-378-84-652 75-107-313-310 170-330-7v50l-229 217-356 52-189-425-214-204 31-335-355 114-130-51-175-18-156-148-288 149-369-46-245-559-188-145 27-124-75-12-161 294-215-282-685 246-124-387 169-266-80-455-260-254-204-47-700 138-194-388-227-128-187 80-620 28-184-674-1525-523-3032 354-550-153-351-261-150 69-158-286 127-297-608-303 29-153-329 126-198 208-243-149-77-803-191 20-361-166-240 60-356 45-711 463-199-203-52-252 43-780-459-96-176 111-260-328-598-10-38-46-100-503 75-487-130-340 121-770 319 166 104 207 251-99 460 439 52-105 58-1431-323-630 112-186-8-146-325 31-254-99-89 121-268-134-267 150 2-361-145-127-170 114-751-53-188 488-206-198-286 106-272-104-133-126-154 134 109 207-167-3-55 282-326-27 81-419-256-161-346 87-124 329-153-34 1-175-74-126-89 40 83 256-259 226-382-320-157 107 76 141-393 92-167-310-76-584 129-239-139-350-397-444-8-386 106-399-43-398-187-199 33-226-201-373-435-935-279-115-111-486-192-164-832-570-263-436-560-517-218-781-508-921z">
	</path>
</a>
<a class="actived" xlink:href="#campinas" name="Campinas" cod="07">
	<path stroke="#fff" stroke-width="1" stroke-linecap="round" stroke-linejoin="round"  d="m174954 73640 276-38 167 258 219 79 663-578 278-569-248-637 77-210 251-87 372 4 496-168 289-779 311-345 405-267-81-747-33-455 155-562-911-475-377-303 79-200-172-287 344-423 48-102 362-100 209-249v-195l465 149 762-434 110-255 314-221 182 215 413-127 392 92-113-552 450-338 476 198 85 240 327 86 185-161 230 150 526 162 297 256 72 235 302 401 447-640-37-294 431 15 153-86 581-341 94-334-335-473-160 12-648-345 215-316-421-876-30-154 58-507 333 22 101-527-215-177-417-85-277 183-245-154-430 215-208-5-148-378-444-453-50-257 556-455 93 47 453-205 202-688 389-273 356 58 192-158 326-32 230-210 553 45 265-281 226-598-175-263 235-925-118-587 211-320 230-72 10-131 149-24 563-225 136-23 115-180 47-447 120-73 141 253 233-38 51-99-97-130 329-317-86-77 38-219 95-470 542-779 6-246-144-113 336-245 314-833 819-580-41 323 121 229 365 475 150-9 2-3 166-239 416-138 401-431 137-175-73-285 351 16 198-218 509-473 297 139 85-84 165 465-88 280 386 306-163 348 144 22 296 307-84 213 180 370 158 100 457 222 36 204-107 120-285 294 153 399-128 286-205 100-15 30 192 291-10 29 69 102-159 177 50 183 358-40 218 129 179-109 78 156 241-105 69-169 121 138 233-84 194 160 234-159 465 174 269-80 145 139 121-192 262 8 252-248 216 75 268-268 12-13 501-87 86-254 221-47 77-134 423-19 213-204-19-279 42-130 53-47 365-45 69 1 838 226 172-148 152 56 152-245 363-86 188 135-108 328 204 163 576 379 382-25 130-63 178 94 271 377 373-443 53-242 273-201 294-54 255-399 188 66 386 16 68 258-75 228-19 171 15 232 271 280 45 270 334 24 252 301-65 140 139 117-118 171 142 200 389 73 48-11 763-512 195 306 273 155 391-38 405 265 225-128 256 108 33 59-13 360 320 244-93 225 104 371-322 365 106 319-258 333 112 359 309 102 323 552-16 49-84 180-277 142 5 173-302 389 107 259-186 246 263 156-70 211-497 263-19 229-387 54-174 237 145 362-246 96-300 163 2 659-361 174-1367-291-70 545-155 92-2 13-19 121-6 79 226 389-186 437 89 139-163 211 149 784-126 81-290-11-192 221-259 113 84 318-507 538-98 298-307 214-318 421 323 290 103 117 325-32 32 71 259 557 6 247 298 99-175 479-356 97-88 94-154 219 231 355-71 371 424 284-5 360 308 670 199 181 200 12 220 352 175 74 126 215 22 240-37 174-77 58-92-14-626-240-249 31-87 11-35 16-73 204-234 198-383-43-78 52-152 143-107 271 280 558 8 5 552 149-202 266-593 155-381-30-306 187-224-129-222 4-69 33-16 31 94 174 124 226 182 86 307 77 215-133 181 108 205-95 17-5 298 192 600-187 189 107 345 400 343 67 221 644 424 78 61 50-15 124-10 9-364 347-842 230-143 612-34 93-147-87-365 82-204-171-144 43 89 252-289 997 4 16 56 219-463 423 141 342-169-61-295 266-228 270 9 185 256 246-254 220 158 338v1l-316 327-237 5 165 320 216-129 5 203 298 67 69 336 111 89-69 248 123 8-25 155 115-53 97 82 18 244 142 22 153 232 60 116 415-105 39 7-167 464 89 327-148 504 51 204 2 7 490 276 112 161 218-93 262 314 464 88 146-101 263 237 363-153 304 94 252 135 35 236 243-178 310-23 186 264-85 150 52 293 215-52 381 96-168 524-188 204 1090 391 53 313 437-206 205 274 549-22 59 131 323-11 30-2 134 263 300 121 5 182 405 216 259-3 194-334 141 120-133 426-692 607 157 312 497 55-322 400 567 691-566 122-50 271 122 138 454 79 301 167 123 222-22 305-397 296-78-100 79-195-97-49-138-49-172 134-269-88-388 211-465 92-190 151-261-79-339 151 64 235 235 220 19 38-234 160 105 122 56 58 128-120 324 184 169 629 412-26 83 162 308 121 171-100 456 252 430 86 215-99 133 115 260 82 393 454 173-131 610 96 81 183-281 101-56 245-143 13-132 231-290 119-380 894-4 17-303 175-341-209-62-204-254-116-1177 522-707-11-209 70-382-131-467 136-355-141-472 168-35-20-74 212-464 183-83-100-129 165-188-4-748 285-500-395-269-353-516 166 39-127-50-678-454-102-133 126-170-315-174-212 217-447-300-142-133-38-435-37-621 111-110-83-281 290-77 113-347 67-117 215-3 159-134 653-260 88-64 128-192-15-86-122-174 96-194 731-235 189-201-192-243 162-190-169 79-71-69-151-196-29 36-120-233 106-84-117-117 137-105-76-206 273-602-37-155-133-503-44-35 379 133 334 127 17 11 477 431 120 191-192 135-2 324 352-42 356-44 86-404 227-632-147-229 100-113-179-230 7-74 136-474 102-162 234 304 327 159 40 119 221-175 177-181 175-497 58-76 238-619 502-109 437 486 741 62 259-6 241 149 98 77 275-326 180-62 80-177 95-45 187-349 82-73 148-260 71-63 9-328 73-263-99-176 155-426 357-179 190-125-51-4 174-182 196 279 317-117 221-254-305-352-328-40-250-204-79-165-408-282-172 21-156-4-108-132-60-255-98-659-32-179 107-267 82-126 5-105 168 268 363-20 507-814 146-181 258-831-34-85 54 97 435 295 877 539 875 57 365-146 448 393 407-205 370-79-1-347-341-67-339-786-26-1064-270-251-210-288-76-796-109-322 80-279-250-237-273 105-301-188-529-114-62-85 66-272 405-406 118-179-277-196-395-98-162 112-487-584 288-343-320-242-67-61 136-235 57-179 587-527 255-162 227-309 57-70 50-914 411-139-532 342-941-497-645 130-144 90-192-230-75-150-501-128-707-387-213-138-247-165-3-102-203 102-91 280 31 219-150 568-208-187-143 196-96-81-83 280-2 89 128 247-172-108 180 113 182 89-96-49-159 305 79 111-229 126-17-43-136 203-25-149-81 172-79-55-46-149-153-371-299-147-265 307-311 270 29-113-642 137-488-176-92-80-67 104-108-145-198-310 9-163 130-742-399-445-770-4-769-93 14-514 400-365-40-130-244-401 148-306-57-111 31-231 27-361-347 103-430 234-280-9-179 479-909 287-117 19-454-70-201 129-209-153-175-375-380 610-355 149 272 321 158 142-195 240 88 93-270 212 99 251-174 66-219 435-161 277-15 229 127 331-142 382-204 55-134 60-149 424-382 281-53 566 778 351 249 359-112-22-429 360-295 443 61 274 148 206-39 64-70-195-108 215-178-17-541 393-322 62-364 156-100 241-475 561-339 11-11 181-329-489-544 329-57 168-347 218-193 132-414 101-461-602-275-124-194-42-394-305-276 87-607-248-93 201-195 294-96 303-330 108-480 180-243 883-14 90 61 848 1182 215 297 492-382 195-88 351-489 39-607 213-431 57-245 448-179 192-250-34-461 251-1187 152-269-247-449-230 56 114-595-191-62-120-204-236-21-41 169-147-211-177 30-210-39-51 194-236 65-499-161-219 56-131-262-220-128-243 375-290-115-30-601-210-31-62 282-172 22-36-92-120 71-213-130-115-296-414-300-63-153-62-116 83-201 359-360-304-125-128-239-256 360-41-330 185-229 204-22 164-166 68 75 290-190 265 35 226-764 180-220-156-363-40-199-67-241 84-476 89-547-154-286 35-175-85-14-1155-235-434 43-166-114-42 90-62 54-344 182-23 152-316-21-328 4-253-4-405-274-330-44-160-104-274 18-198 139-612-41-352 98-728-364-1326-629-288 506-216 96-716 77-307-98-266 155-152-192-273 32-304-318-393 305-463 185-438-186-393 188-893-767-190-338-402-302z">
	</path>
</a>
<a  xlink:href="#bauru" name="Bauru" cod="04">
	<path stroke="#fff" stroke-width="1" stroke-linecap="round" stroke-linejoin="round"  d="m92920 63293 290-190 367 88 190-259 699 87 314-123 125-268 812 179 206-98 119 138 171 9 275-425 286 31 562 275 311-189 138 224 241-264 64-134-123-181 294-1019-4-573 622-385 186-453 348-160 66-201 111 117-86 293 63 198 135 192 223 16 249-462 325-198 715-53 396 107 324-311 94-84 759-35 367-357 63-79 223-270 549 97 171-216 228-773-270-147 29-320 162-268 16-58 351-571 57-373 175 64 442-97 78-426-70-132 103-46-71-172 264-335-39-222 96-138-271-875 167-136 226-628 237-51 156-328 241-328 81-202 188-1 104-620 198-99-59-370-167-94-3-229-130-68-7-300-122-178 546 165 376 396 390 68 39 10 614 318 482-281 241-14 95 201-97 322 512 893 94 105 94-47 242-247 260-54 296 128 23 183-108 429 116 131 305 49 406-465 330 36 944 71 333 145 567 504 615 112 536 950 282 264 280 54 58 149 82 256 633 575 587 1069 345 358 353 289 1119 574 797 610 253 65 495-146 10-7 610-163 1122 351 403 476 131 676 347 1047 677 540 518 749 1073 382 775 5 159-446 604-287 444-64 429 154 308 316-7 708 393 766 337 284 711 1048 670 96 1195 608 928-138 285-130 335-98 667-144 276 149 111 207-42 443-794 930-82 467 497 517 1144 336 621 143 336 224 414 1211 438 425 241-205 204 83 489-203 276-360 216-21-73-90 154-138 494 37 496 81 172-76 144 118 549-100 268-255 196-35 288 181 120-56 441 126 219 315-13 220 1070 179 217 441 296 344 9 313 205 71 523 439-8 112 409-43 442 331 205-13-21 166 245 107 274 26 304 375 693 154 296 334 52 237 162 35 44 250 221 61 266-187 778-247 212-275 550 43-199 419 210 172 128 323 435 200 205-13 182 308 197 137-77 235 240 225 104-29v235l117 141 218 30 23 109 273-120 56 134 172 14 175 260-49 155 257 211-37 227-33 326 130 108-25 324 118 46-49 121 180 56-39 151 322 92 135 190 332-90 266 183 279 40 67 283 354 231 213 21 39 139 179-8 38 130 69 61-160 348-247 220 170 460-134 380-136 667 234-64 16 154 153-84 78 200 112-246 524 55-19 255-144 38 12 306 311-178 243 503 485 556-3 182 642 898 157 537-95 323 159 428-464-98-391 484-76 303-295 263-39 166 305 629 446 493 306 139 4 283-392 430-644 157-312 863 485 131 830-431 298 181-286 88-232 375-240 141 55 130 152 202-87 155 249 691-106 164-314 690 215 379 256 77 166-116 235-663 418 23 159 549 159 163 344 161 836 130 359 324 599-288 738 9 706-158 115 251-175 451 230 160-292 1288 182 381 153 41 143 575 188 31 217 339 351-110 370-303 265 26 177-178 369 217 145 293-51 399-217 17-110 123-62 788 92 357-157 241-79 536 76 334-476 189 663 557 439 192 298 405-92 386-379 62-62 158 530 267 234-67 198-313-91-377 186-176 290 484-1 236 177 241 334-347 897-193 89 95-287 247-92 312-224 148-138 535 107 216 265 160 179 341-203 218 241 233-63 205 161 143 9 203-245 120-139 379-135 75 131 537-153-13-180 83-98 541-296-1-77-123-341 340-49 347-611 100-198 382-618-38-321 82-8 409-163 359-438 287-169-264-159-131-337-41-304-302-159 168-525 146 34 213-67 26-114-19-463-240-547 14-139-181-261 58-144 66 114 191-81 148-122 5-212-109 79 113-40 176-126-31-126 209-385 51-76 45 184 115-71 297 174-43 97 92 24 394-111 211 147 103-429 963-807 279-130 143-611 405-39 333-247 159-71-66-134 239 192 793 340 90 143 152-58 498-625-99-258 283-115 72-103-129 105-354-141-281-329-14-92-125-100-29-66-13-203-18-322 247-741 66-130 71 209 419-413-8-104 182-170-84-210 182 141 119-24 201-441-355-574-16-291-160 33-336-153-208-353-165-603 324-267-85-175 68-386-196-680-84-169-110-36 47-376 238-117-80-135 151-136-43-59 4-498 79-396 233-179-34-442 531-404 29-252 507-670 148-525 229-607 83 511 565 60 310-238 1496-185 136-372-29-75 134-3 9 226 281-134 249 291 1243 365 112 124 131 409 406-460-74 166 246-259 368-40 514-357-143-203 539 273 191 463-218 197 9 16 125-284 160 38 404 421 47 251 422-40 230-36 137-39 191-103-158-324 229-242-30-512-80-196 142-680-259-613 458-353-77-476 54-178 210-826 191-295-59-189 655-284 254-645-144-494-630-51-316-410-271-335-122-718 439-686 131-266 153-840 282-291-166-369 97-145-84-669 31-175 28-8 235-421 347-149 1-348-260-116 305-491 307-203 772-623 241-267 373 184 336-97 495-647-47-353 108-341-78-489 356-121-264-530-377-18-349 30-76 180-90-224-364 218-288-184-142 229-136-68-246 403-463-106-274 147-291-387-113-79-332 130-141 242 26 101-159-116-188-118-7 154-336-126-126 224-169-17-262 100-130-121-273-40 108-154-110-106 64-42-261-257-155-497 143-151-243 117-76-114-565-113-101 322-246-42-120-136 56-14-272-181-14-130-195 388-364 29-171-470-275-515-776 313-252-35-237-141-55-190 181-339-199-202-66-156-112 159-125 28-296-432-409-57-181 368 62 195-176-232-247 103-269-234-292-3-229 112-382 276-377 61-383-468-389 509-176 91-169-186-369-184-929-7-548-334-206-253-327-299-16-122-95-149-658 115-334-143-337 92-611 98-276-34-356 187-194 55-812-170-728 76-142 406-125 9-229-276-358 366-134-732-740-104-630-296-159 102-325-602-200-343-162-82-60-466-305 707-446-260-148-197-434-258-236-162-415 6-395-345-25-533 145-143-166-93 144-461 13-303-180-10-256-258-414 105-463-68-180 258-706-283-737 8-554-260-492 224-636-34-213 140-213-261-302-27-257 384-39 496-648-103-137 714-162-68-297-686-330 189-292-62-74 160-56-345-301-1744-377-117-401-700-276-260-504-91-169 135-53-94-278-1061-759-386-892-162-17-79 119-320 69 5 119-190 10 44 328-125 120-112 36-58 234-291 44 100 389-156 76-266-135-194 504-210 31-174 459-195 340-193 81 117 403-207 192-129 343 71 352-343 342 51 219-160 20-647-468-29-612-128-188-241 42-225-146-235-7-297-418-785-175-398 309-121 434-193-335-804-834 40-300-412-718 23-421-198-343-151-53 8-336-173-61-197-404 288 31 346-303 43-490 384-366 497-102 62-339 470-413 263 507 245 107 129 234 258 67 303-164 565-826 281 262 63 515 221 236 486-45 507-280-23-135-215-20-8-340 764-648 246-825 78-361 352 235 416 13 293 132 543-55 71 19 641-371 353-552 22-264 251-137 328-493 137 35 255-191 334-97 294-419 213-602-238-26-283 303 41-258 126-385-50-376-454-361-228-551-157 121-930-438 5-250-157-275-259-147-136-620-548-267 150-854-815-87-312-173 130-460-241 283-157 9-273-331-252-131 34-370-578-143-540 143-2-499-412-538 1-113-249-219-268-7-158 248-152 6-152-459-577-124-300-432-58 83-261 38-83-228-1015-431-527 860-38 214-286-119v-366l-277-70-450-461-253-145-351-430-113-164-432-113-342-264-498-40-208-116-608-520-1284-440-636-95-638-440-471 63-1071-575-103-169 54-200-392-388-57-314-523-92-388-277-270-511-756-300-310-337-346-99-230-495-194-7-137-156 11-179-355-98-132-219 39-122-142-109-14-43-109-128-166 10-102-199-263-169-241 28-310-331-347 98-347-245-283 113-162-330-471-171-111-199-411-55-111-339-262-153-77-417z">
	</path>
</a>
<a  xlink:href="#piracicaba" name="Piracicaba" cod="06">
	<path stroke="#fff" stroke-width="1" stroke-linecap="round" stroke-linejoin="round"  d="m153586 78436 355-213 538-68 375 89 151-319 474-135 268 25-308-720 356 130 893-3 555-342 465 196 200 375 1164 390 188 166 432-53 126-124 303 50 988-864 468-35 458-824-92-741 59-414-106-319 81-112 277 139 301-22 328 399 497 438 169 368 260 50 112-123 261 159 785-217 510 417 94 487 239 238 27 63 20 17 121-31 502 243 100 75 141-196 148 98 13-123 410 164 384-246 141 181 171 3 650-239 228 105 84 258 132 44 274-954 235-99 336 535 865 568 58 473 251 429 675-151 21 368-102 115 559 1163 83-798 413-339 472-91 254-249 512-116 299 94 7 4 259-72 144-173 558 11 536-179 52-105 11-397 208-323 160-87 307 184 155-16 348 20 268-135 6-17-384-1203-482-734 393-188 438 186 463-185 393-305 304 318 273-32 152 192 267-155 307 98 715-78 217-96 288-505 1325 629 728 364 352-98 612 41 198-139 274-18 161 104 329 44 405 274 253 4 328-4 316 21 24-152 343-182 62-54 42-90 166 114 434-43 1155 234 85 15-35 175 154 286-89 547-84 476 67 241 40 199 156 363-180 220-226 764-264-35-290 190-69-75-164 166-204 22-185 229 41 330 256-361 128 240 304 125-359 360-83 201 62 116 63 153 414 300 116 296 212 130 120-71 37 92 171-22 62-282 210 30 30 602 290 115 244-375 219 128 131 262 219-56 499 161 236-65 51-194 210 39 177-30 147 211 41-169 236 21 120 204 191 62-114 595 230-56 248 449-153 269-251 1187 34 461-192 249-447 180-58 245-213 431-39 607-351 489-195 88-492 381-215-296-848-1182-89-61-883 14-181 243-108 480-302 330-294 96-202 195 248 93-87 607 305 276 43 394 123 194 602 275-101 461-132 413-218 194-168 346-329 58 489 544-181 329-11 11-561 338-241 476-155 100-63 364-393 322 17 541-214 178 194 108-64 70-206 38-274-147-443-61-360 295 22 429-359 112-351-249-566-778-281 53-424 382-60 149-55 134-382 204-331 142-229-127-277 15-435 161-66 219-251 174-212-99-93 270-239-88-143 195-320-158-150-272-610 355 376 380 152 175-129 209 71 201-20 454-287 117-479 909 9 179-234 280-103 430 361 347 231-27 111-31 306 57 401-148 130 244 365 40 514-400 93-14 4 769 445 770 742 399 163-130 311-9 145 198-105 108 80 67 176 92-137 488 114 642-271-30-307 312 147 265 371 299 149 152 55 47-172 79 149 81-203 25 43 136-126 16-110 230-306-79 49 159-89 96-113-182 109-180-248 172-89-128-280 2 81 83-196 96 188 143-569 208-219 150-280-31-101 91 101 203 165 3 138 247 387 213 128 707 150 501 230 75-90 192-130 144-215 209-527-24-402 100-98 220 111 246-472-9-171-230-216-446-525-325-574 93-53 174-259 57-225-138-248 34-322-256-81 212-463 200-686-149-165-7-347 491-149-16-113-149-75 234 193 763 359-116 169-188 262-37 75 259 388 339-79 107-720-140-175 262 22 379-48 374-417 324-310 111-195-55-1064 819-273 81-472-228 9-150 300-337 166 13 139-148-69-326-49-411-641-356-121-9-142-635-375 27-128-121-274 42-303-496-425 181-534 542-157 39-94 211-303-427-538-171-546-303 683-24-22-296 237-24-87-488-339-339-246 9-70 74-215-63-18-163 325-16 193-212 5-15 927-776 88-222 872-178-167-189-549 61-254-440 160-82 621 9 593-420-275-140-770 357-22-173 551-582-241-272-542 169-202-85-282 147-246-62-125-156 47-409-277-387-67-270 59-56 154 107-67-238 76-220-115-131 196-115 110 69 66-159-102-80 13-207 99-146 125 5-103-368 108-244 2-4-751 16-105 326-340 178-709-90-83-177 228-260 159-567-225-186-315 115-281-10-429 166-67 259-133-29-302 192-481-34-897 193-334 347-176-241v-236l-290-483-186 175 92 377-199 313-234 67-530-267 62-158 379-62 93-385-299-406-439-192-663-556 476-190-75-334 78-536 158-241-93-357 62-788 110-123 217-17 52-399-146-293-368-216-178 177-265-26-370 303-351 110-217-338-188-32-142-574-153-42-183-381 292-1288-230-160 176-451-116-251-705 158-739-8-599 287-359-324-835-130-344-161-159-163-160-548-418-24-235 664-166 115-256-77-214-379 314-689 105-165-249-691 88-155-153-202-54-129 239-141 233-376 286-87-299-182-830 431-484-131 311-863 644-157 392-430-4-283-306-139-446-493-305-629 39-166 295-262 77-304 390-484 464 98-159-428 95-323-156-537-642-898 2-182-484-556-243-503-312 178-12-306 144-38 20-255-525-55-111 246-79-200-153 84-15-153-235 63 136-667 135-380-171-460 248-220 160-348-69-61z">
	</path>
</a>
<a  xlink:href="#itapetininga" name="Itapetininga" cod="11">
	<path stroke="#fff" stroke-width="1" stroke-linecap="round" stroke-linejoin="round"  d="m113018 119539-155-343 231-194 221 68-210-461 228-186v-10l-27-459 360 192 146-38-124-202 104-399 207 25-102 189 142-40-101 312 75 93 289 116 140-45 23 406 346-28-15 100 526 25 343 126 302 321 476-73 879 617 242 398 97-32 71-126 386-42 185-177 225 67 397-70 229 136 259-95 179 89 457 115 486-328 341-21 243 145 262-141 271 81 436-80-491-338 485-735-144-351 198-116 227 64 25-210-1189-1129-54-161 120-294 651-160 111-227 273-120 276-42 211 197 226 10 70 200 218 83 206-206 171 78 309-123 109 128 295-174 188 39 87 149 395 41 194 179 160-102 346 2 156 111 202 66 339 200 190-181 141 55 35 236-313 253 515 775 470 276-29 171-388 363 130 196 181 13 14 272 136-56 42 121-322 245 113 101 114 565-117 77 151 242 497-142 258 155 41 261 106-64 154 109 40-107 121 272-100 130 17 262-224 170 126 126-153 335 117 7 116 188-101 159-242-26-130 141 80 332 386 113-147 291 106 275-403 463 68 245-229 137 184 141-218 288 224 364-180 90-30 77 18 349 530 376 121 265 489-357 341 79 353-108 647 46 97-494-184-336 267-374 623-240 203-773 491-306 116-306 348 261 149-2 421-347 8-234 175-29 669-30 145 83 369-96 291 166 840-283 266-153 686-131 718-439 335 122 410 272 51 316 494 629 645 145 284-255 189-654 295 58 826-191 178-210 476-54 353 78 613-459 680 260 196-142 512 79 243 30 323-229 103 158 39-190 36-137 40-230-251-422-421-47-38-404 284-161-16-124-197-10-463 219-273-192 203-539 358 143 39-514 259-368-166-245 460 73-409-406-124-131-365-112-291-1242 134-250-226-281 3-9 75-133 372 29 185-136 238-1496-60-311-511-565 607-82 525-230 670-147 252-507 404-29 442-532 179 35 396-234 498-79 59-4 136 43 135-150 117 79 376-238 36-47 169 110 680 85 386 195 175-67 267 84 603-324 353 165 153 208-33 336 291 160 574 16 441 355 24-200-141-120 210-181 170 83 104-182 413 8-209-418 130-71 742-66 322-247 202 17 66 13 100 30 92 124 329 14 141 282-105 353 103 129 115-72 258-283 625 99 58-497-143-152-340-91-192-792 134-240 71 67 247-159 39-334 611-404 130-143 807-280 429-963-147-103 111-210-24-395-97-92-174 44 71-297-184-115 76-45 385-52 126-208 126 30 41-175-80-114 212 109 122-5 81-148-114-190 144-67 261-58 139 181 547-14 463 240 114 19 67-25-34-214 525-145 159-169 304 302 337 42 159 130 169 265 438-288 163-358 8-410 321-81 618 37 198-381 611-100 49-347 341-340 77 122 296 2 98-542 180-83 153 13-131-537 136-75 138-379 246-119-10-204-161-143 63-205-241-232 203-219-179-340-265-161-107-215 138-535 224-149 92-312 287-247-89-94 480 34 303-192 133 28 67-259 429-166 281 10 315-115 225 186-160 567-227 261 83 177 709 89 340-178 104-325 752-17-2 5-108 243 103 368-126-5-98 146-13 207 102 80-66 159-111-68-195 114 115 131-76 220 67 238-154-107-59 57 67 269 277 388-48 409 126 156 245 62 283-148 202 86 542-170 241 272-551 583 22 172 770-356 274 139-593 420-620-9-160 82 253 441 550-62 167 190-872 177-88 222-927 777-5 14-193 212-325 16 18 163 214 63 71-74 245-9 340 339 87 489-237 24 22 295-684 24 546 303 538 171 303 427 94-211 158-39 534-542 425-181 303 496 273-42 128 121 376-27 142 635 121 10 641 355 49 411 69 326-139 148-166-12-300 336-10 150 473 229 273-81 1063-819 196 54 310-110 21 289 146-15 227 249 139 970-70 285 68 556 330 199-216 353 118 210-96 297 41 62 298 329-78 181 320 402 439 322 54 275-148 316-350 195-81-151-296-75-211 323-67-313 137-139-326 104-156 224-338-82-65 100-111-71 61-69-237-53-168 256-310-6-97 270-143-266-201-10-122-284 186-192-52-147-151-45-209-495-211-74-121 180-230-10-297-164-42 143 10 70-121 12-95 173-107-81-112-276-190 38-93-53-253 349 206 391 38 49 84-242 65 23-49 56 226 111-149 380 84 59-22 337 97 16 28 150-260 139-187 13-50-104-248 191-20 161-246 41-83-6-202 488 135 113-429 407 373 25 140 99-26 181-166 105-261-13-51 128-351 27 61 461-109 196 84 171-491-159 13 313-189 224 2 6 256 103-62 147 266 17-83 74 278 216-215 307 397 86 27 383 37 222-233 431-53 419-426 71-38 325-253 237-394-24-9-3-465-24-229-213-250 382-649 272-191 416-438-271-130 141-362-73-173 417 23 138 306 126 170 616 354 235 32 85 209 84-195 132 91 329-202 408 217 66 32 148 372 280-42 251 98-106 423 355 130-160 29 141 306-28 26 307-111 202 84 204-155 33-73 171-91 16-452 1049-939-83-363 377-409 30-631-837 45-133-124-266 175-180-286-2-333 54-96-66-135-68-209 149-29-37-498-148-373 74-185-64-286 497-363 192-118-71-159-207-570-40-1198 1233-346 305-319 99 44 125-150 288-445 66-388 377-428 176-287 93-252-121-100 21-109-6-43-10-472 31-168 186 452 121 218 337 68 259-198 144-96 290 209-4 112 282 150-186 116 31 152 306 27 650 202 244 266 301 337 234 91 193 228 62 176 295 126 17-159 410 225 328-215 394 23 397 127 60 292-206 262 126 89 105 183-43 12-128 276-107 49-128 280 385 203 89 182-139 222 190-9 119 176-66 281 241 280 512 371 83 204 350 246 209 123-40 19 137 75 106 198-55 50 98 107-87 298 232 209 367-52 241 195 88 134 223 192 14 46 250-836-140-848 659-91 17-45-156-184-36-171 180-824 103-201 265 179 326-284 94 87 228-76 448-674 334-391 48 24 190-261 34-347-50-143-155-211 75-476-91-120 191 153 264-242 157 49 531-123 41 1-108h-131l-542 488-819 317-110 211h-460l-572 45-584-156-142 256-193 203-557 267-13 199 219 252-213 51-352-108-214 375-165-73-402 287-325-46-32-262 183-280-49-89-402 22-95-173-283 4-219-130-765 660 62 93 298-100 369 40-110 257 141 329 131 88 71 546-190 60-79 15-85 117 98 548-295 321 40 352-303 240-3 241-448 346-213 297 155 175 397 53 318-346 277-50 150 189 7 247 257 21 60 186-156 158 59 197-88 250-289 248-1e3 427 89 198 301 444-462 613-280-30-383 140-355 166-147 251 269 464 499 120 205 196 221-47 132 164-41 112-296-41-61 216-263 262-228-1-62-112-257 41-96 214-426 242 41 192-236 330 63 251-263 523 51 373-187 248-473 241-115 319-396-333-329 44-284 242-184 160-209 154-61 905-249 325-153-68-32-225-213-39-20-208-249 23-281-307 27-162-332-312-87-432-28 2-201 274-331-317-71-35-345 28-102-44-358 367-114-98-53 3-364 127 114 252-513 74-98 446-423-143-69-106 176 8-172-190 153-162-88-101 108-147-171-238-350-74-180 45 179 210-47 484-17 10-216-209-200-189-817 200-137-79-312 268-23 6-264 27 23-366-130-78-364 478-298 45-296-482-358-180-352-36-10-17-291-508-247-52-360 290-401-273-161 48 300 457-82 68-24 5-407-232-1138 91-316 60 27 82 24 72-19 56-124 122-222-240-159 3-558-42-401 352-149-373-361-48-38-174-22-10-347-15-79-277-102-26-71 6-408 109-15-41 137-581 172-59-15-17-137-70-423 253-466-252-39 5-235 183 75 104 216-61-52 251-154 103 66 218-251 177-181 415-58 58-81 40-341 57-104-16-176-333-228-31-139 251-284 47-9-1-153-189-56-16-158 42-82 365-499-175-49-48-180-175-691-108-387 111-155-107-335 18-66 71-136 144-78 112-320 83 5 324-53 77-72 60-784-48-202-25-498-84-188-121-406 54-574-587-177-41-160-22 4-115-209-164 381-269-63-158-251-125 105-92-312-120 290-535-199-190-36-43 47-296 28-21 263-222-395-275 130-59 40-159-2-33-204-411 96-130-43-215 192-64 130-218 404 205 9-270 327-191 23-57-215-293 26-396-250-320-11-73 127-74 677-209-51-274 228-279 301-82 12-41 204-41-40-137 97 12v-207l-254-85 93-319-66-350 371-375 162-341-71-196-27-16-139-55-221 355-112-189 46-118 2-6 338-577 511-617 73-77 676-567-158-195-571 63-215-305-547 4-49-346-93-12-32-22-469-339-120 2-309 19-113-192-90-198 38-112-307-124 107-74-188-283 79-256-122-276-187-14 102-225-227-249-214 13-77-197-4-9-882-507-162-244 2-61 443-243-144-359 196-517-15-549 245-218-134-161-15-224-132 19-638-342-26-31 5-167-2-39-248-164-221 116-278-69-74 108-143-163-469-181 126-145-87-176 91-65-633-184-154-77-20-87 41-181 18-23-192-89 168-200-285 2 35-309-403-102-80-72-196-268-98-204-16-326-320-4-19-225-159-19-63 142-173 18-94-184 124-63-162-65 245-81 90-178-178 13-2-191-179-215-179 11 15-73 72-265 45-166-305-280-46-14-178 119-169-62 77-171 428-160-16-20-156-118 65-192-325-130-224 51-104-339 380 78 129-123-196-84 85-160-182-159-170-115-239 168-19 94-21 111-120-24-327-160-327-12 78-230-270-92-187-378-246-123 109-565-386 342-228-467-280-175 85-347-341-167 81-95 296 21 96-78-390-230 294-78 356 162-170-158-12-208 180-96 354-3 414-263 72-206-94-310 47-243 19-98-150-315-132-67 110-25-1-176 96-148-12-98 98-88-351-195 249-160-47-131-60-161 105-256 362 186 85-36 16-16-157-351-33-124 166-542-167-77-22-218-45-21 4-73-126 29-13-205-198 79-239-237 36-139v-3l-71 36-86 40-105-247 62-181-143-20 8-156-507-203-1-9-46-260-427-123 275-171 60-281-227-53-6-118-10-155-120-58-95-172 93-368 52-113 447-275 26-231-211-310 269-308 17-72-198-321 153-217-744-382z">
	</path>
</a>
<a  xlink:href="#ribeiraopreto" name="Ribeirão Preto " cod="02">
	<path stroke="#fff" stroke-width="1" stroke-linecap="round" stroke-linejoin="round"  d="m135878 23840 254-207 294-704 52-213-4-44-35-387-35-261-316-914 135-1032-400-615 12-156 84-651 411-845 430-372 65-174 64-218 10-150-125-404 69-535 347-271 503-303 156-51 1304 61 850-325 749-97 128 47 999 343 586-44 355 165 495-5h61l561-200 950-689 360-146 104-32 824-57 536 100 715 132 718 11 1238-388 377-168 1031-208 895 278 238 10 376-21 175-35 366-206 46-7 571-21 105 9 646 319 356 437 137 54 346 94 200 13 484-73 579-200 93-28 188-224-10-341-963-918-105-245 288-946-106-352 2-2 203-204 475-1 152 57 206 130 332 313 649 905 113 657 343 248 217-19 76 31 327 618 657 220 408 377 40 15 544 79 747 5 653-290 347-628 569 98 511-481 205-445 191-474-1-935 19-41 122-138 144-75 168-40 853 634 154 1122 292 492 868 446 133 38 149 42 81-31 488-644 161-492 48-321 60-407 299-319 6-111-29-104-340-240-50-83-67-186v-159l13-138 83-188 401-663 207-53 84-22 487 169 1026-335 1116 17 19 6 430 134 540-73 651-303 262 55 871 682 41 373 64 131 326 337 393 290 421 309 342-188 339-6 598-507 68-581 354-345 65-20 771 23 90-40 49-45 301-277 974-43 339-351 507-79 169-160 65-58 78-9 150 77 501 734 384 281 377 491 5 152-180 117-391 255 62 328 87 290 648 465 29 44 35 26 316 447 89 46 884 27 493 630 345 42 501 276 673 317 517 749 677 223 104 45 334 276 33 700 34 101 233 295 504 544-45 261-425 1051-205 69-364 586-165 8-211 273-158 649-124 115 18 329-8 164-148 48 27 118-273 338 151 493-65 151 90 34-58 324 117 77-97 77 202 68-103 370 147 169-117 139 42 188-163 68 146 109-204 159 76 48-42 113 217 102 25 226-171 203 7 11 678 533 323 75 182 279 93-37 651 314 562 478 368 41 459 312 943 187 209 329 51 108 111 363 148 483-150 150 313 768 198-8 101 132-82 292 4 97 22 62 396 288 90 91-117 512 474 196 28 170 12 152-13 135-184 343 37 403-358 419-68 284-118 45-940 11-487-187-32 9-226 312 111 179-519 417 343 252-221 65-202 907-201 135-365 18-210 520-338 242 302 796-371 926-404 919 480 816 437 388 633 127-78 429 328 359 340 74 202 311 463 121 182 385-214 465-15 401-182 268 269 513 9 18 60 712 217 317-99 588 163-7 276 347 464 177 11 115-237 104-64 96-116 319-225 251 501 627-196 440 158 230-7 324 471 437 152 422 94-118 247-62 35-13 650 6 88 77-162 136-135 356-203 147 47 285 39 12 403-26 335 226 11 120 19 209 200 269-84 84-297-139-509 473-198 218-351-16 72 285-137 175-400 431-416 138-166 239-2 3-150 9-365-475-121-229 41-323-819 580-314 833-336 245 144 113-6 246-543 779-94 470-38 219 85 77-328 317 97 130-51 99-233 38-142-253-119 73-47 447-115 180-136 23-564 225-149 24-9 131-230 72-212 320 118 587-234 925 175 263-227 598-265 281-552-45-230 210-326 32-193 158-356-58-388 273-202 688-453 205-94-47-555 455 50 257 443 453 149 378 207 5 431-215 245 154 276-183 418 85 215 177-101 527-333-22-58 507 29 154 421 876-214 316 647 345 160-12 336 473-94 334-581 341-154 86-430-15 37 294-447 640-303-401-71-235-298-256-525-162-231-150-184 161-328-86-84-240-476-198-451 338 114 552-393-92-412 127-183-215-313 221-110 255-762 434-466-149-185-169h-142l-111 135-185-35-416-387-352-118-99-347-213-204-78-703-203-279-597 290-214-26-23 245-292-529-201-46-95-225-191-32-140 99-122 287-382 121-255 14-69-124-251-200 72-325-92-123-734 123-629-458-316 249-86-66-1014-663-367 10-175 285-269-182-388 166-220-68 100-545-574-313 418-251-245-137 26-181 206-130 179 28 149-369 169-55-72-129-244 35-108-143-112-372-271-64-149 96-61-69 119-362-248 56-65-113-2 192-181-242-230-32-128 141 97 132-121 87-130-64-14 144-183-11 15 135-129-167-246 75 32-124 284-112-154-159-137-21-59-281-94 23-166-263-203 141-112-127 10 149-139-37v-185l-207 290-137-28-75-128-159 17-25-339-82 34-323 135 28 275-160-27 115 163-260-41 78 190-191-6-106-222-298 219-582-161-65-171-38 107-16 147-141 34-27-315-127-171-133 2 276-118-32-253-55-88-172 69 32-209-359-50 97-433-280-114 67-301-128 33-11 208-337-58 47-245-194-135 132-119-93-100 114-157-422 69 74-323 3-45-90-35-281-70-5-101 198-97-336-151-47-417-309 132-94-163-68 149-82-46-74-240-239-65 102-198-654-264-33-184-164-108 10-511-152-227 34 162-172 296-359 32-52-140-269-144-247 96-487 241-37-64-80 83-336-8-95 316-478 499-1144 259-1503 263-690 135-586-45-204 266-266 75-378-89-593 373-374-41-377-324-78-395-339-228-353 24 9 326-179 201-652-70-343 141-205-90-4 17-325 427 84 277-444 166-251-98-197 108-675 27-244 21-493 326-444 45-510-495-279 104-428-159-332 144 302 221-357 83-315 304-208 620-284 246-403-625-484-66 135-465-39-599 4-632-205 44-340-165-495 138-359-22 65-437-299-237-86-579 74-594-243-294-260-63-450 177-119-72-113-53 49-330 246-528-113-542 23-82 65-492 359-696 61-696-56-181 12-116-88-560 93-759-321-224 77-204 192 27 106-137 306-16 277-276 442-143 117-203-300-276-12-157-545-509-107-217-92-595-220-466-348-111-42-56-175-282-167-12 57-436-231-53-125-298-124-16-128-23 31-317 152-200 549-187 880-335 260-462 37-401 460-454 113-302 176-496-195-21-17-358-273-50-56-346-396-195-169 206-302-316 3-229-251 86 60-324-385-141-151-209-276 148-525-496 411-235 505-623 363-227v-204l-294-500 307-231-249-409 248-486-39-335 244-219 312-15 261-271 68-472-95-251-160-274 49-87-64-377-185-273-185-143-363 23-102-298-689-122-231-327-299-119-251-359 322-218 123-519-273-973-263-149-152 123-247-77-373 117-141-206-223-22 8-225-68-440-110-184 446-1678-371-563-289-240-195-324-264-66-4-615-462-375-160-280 13-281-152-168-85-380 59-281 199-62 96-176 23-213-138-113z">
	</path>
</a>
<a  xlink:href="#aracatuba" name="Araçatuba" cod="03">
	<path stroke="#fff" stroke-width="1" stroke-linecap="round" stroke-linejoin="round"  d="m46431 42825 269-568 314-499 872-1060 356-269 1231-21 246-8 29-13 1192-737 239-431 171-1313-363-517-24-35-137-632-80-940 194-935-24-208 157-243-387-682 207-924 992-2365 148-259 138-174 198-201 120-93 280-216 1370-921 721-633 165-457 965-1613 451-578 860-500 379-220 165-215 894-1739 431-372 321-662 231-228 34-34 645-468 800-346 1727-357 1237-154 1014-175 505-137 305-105 419-187 428-272 400-301 507 920 219 782 559 516 264 436 831 570 193 164 111 486 278 115 436 936 200 373-33 225 188 200 43 397-106 400 8 386 396 443 139 351-128 239 75 583 168 311 393-93-77-141 158-106 382 320 258-226-83-257 90-39 74 125-1 176 152 33 125-329 345-87 257 161-82 420 326 26 56-282 166 4-108-207 154-135 133 126 272 105 286-106 206 198 188-489 751 53 170-114 145 128-2 360 266-150 269 134 89-121 254 99 325-31 8 146-113 186 324 631-58 1430-53 106-460-440-250 99-104-207-319-166-121 770 130 341-76 486 101 503 37 46 598 10 261 328 176-111 458 96-42 780 51 252 200 203 711-462 356-45 240-60 361 165 190-20 77 804 243 148 199-207 328-127-28 154 608 303-128 296 159 286 149-68 352 260 550 153 3031-353 1525 522 184 674 621-28 187-80 226 128 195 388 700-138 204 47 260 254 79 455-168 266 124 387 685-246 214 282 162-294 75 13-27 123 187 145 245 559 370 46 288-149 155 149 176 17 129 51 356-113-32 334 214 205 189 424 357-52 229-217v-50l330 7 309-170 108 313 652-75 378 85 50 102-4-97 138 38 301-247 114 32-14-135 169-36-77-135 42-294 153 77 277-89 520 271 710-48 193 188 372 21 657 712 295 694-11 206 167 16 185-265 132 278 273 88 210-284 245 241-303 1132-215 98-131 335-338 150-5 13-36 91-595 528-192 287 90 172-519 470-10 270-363 200 12 265-155 310 93 115-31 218-80 28 261 272-266 153-88 299-320 30 17 187-234 121 89 67-139-9-138-74-12 197-310 210 87 165-69 316 286 423 151 630 140 163 36 35 454 395 699 348 651-194h412l929-87 844 481 310-22 289 121 665-55 623 160 595-211 175 386 956 305 484 398 391 13 243 316 462 108 122 178 7 300 130 68 4 229 167 94 59 370-199 99-104 620-187 1-81 202-241 328-156 327-237 52-227 628-167 136 271 874-96 138 40 223-265 334 71 173-103 46 71 132-79 426-442 96-175-64-57 374-350 571-17 57-162 269-28 320 269 147-228 773-171 216-548-97-224 270-62 79-368 357-759 34-94 85-324 311-396-108-715 53-325 199-249 462-223-16-135-192-63-199 86-292-110-117-67 200-347 160-186 454-623 384 5 574-295 1018 123 181-63 135-242 264-138-224-311 189-561-275-287-31-275 425-170-9-120-139-206 98-811-178-126 267-313 124-700-87-190 259-367-89-290 191-265-35-449 282-324-165-90 86-351-262-351 148-136 257-8-121-187-59-179-110-133 64-274 435-209-201-132 122-235-165-581-45-358-340-324-13-136-212-145-145-160 112-495-139-82-167-122-68-159 98-43 563-380-165-170 78-196 23-49 200-199 172-260-54-220-348-161 189-380-193 25-131-354-72 29 75h-306l-38 83-137-239-533-95-207-223-333-131 17-109-313-143-91-414-257-34-169 33-177 79 50-288-112-274-178 24-97 370-182-104-307-75-230-501 55-327-242-150-298-411-276-108-917-538 53-217-614-30-180-129-327 191-123-28-53-120 141-258-359 186-247-269-207 218-121-165-5 120-116 26-125-71 61-119 197-76 115-99 31-256-137-109-250-63-210 187 58 299-332-65-36-134 152-233-88-93-420 646v17l-88-92 100-139-201 250-194-194 180-123-96-103 111 32 79-113-79-233-330-71-112 104 43-147-572-31-173-162-454-102-146-207 14-190 234-192-177-382-147-213-478-100-270 163-19-135-157-48-44-461-449-289-26-138 138-27-211-439-631 126-35 30-115 23-826-450-263-12-270 164-341 57-516-279-177-115-11-183-260-363-169-52-444-69-146-192-821-428-246-426-227-17-651 343-359-199-358-44-618 307-302-83-265-158-244 13-262-491-449-175 51-80-403-327-176-66-195-382-706 19-165 116-173-276-339 4-18-106-120-18-30-109-86 44-238-210-162 7-324-401-105 96-11-100-94 61-183-198-90 28-330-162 76 166-298-179-24 148-126-19-267-198-265 142-134-95 45-73-480-23-268-168v-182l-154 32 43-208-216 36-36-114-99 32 39-103-307-25-471-488-339-40-222-147-92 68-15-113-225-117-110 119-312-68-131-162-120 48 9-87-179 47-146-89 67-207-226-29-253-95-146-223-211-6-62-68 121-61-127-197-265-122-153 128-238-255-469-43-175-162-313 90-86-25 26-219-415-196-253-478 244-93-13-132-348-232-60 102-304-151-178 163-237-63-342 238 192 101-155 2-87 178-32 55-263-15 8 101-274 81-205-92-20-146-176-8-36-114 117-90-138 7-1-140-308 5-170-13 24-123-85-9 18-316-255-116 19-161 165-137 19-255-210-82-58-300 103-124-146-353-135 69-29-170-209 17-228-428-64 63-91-90-85 143-156-102 11 151-244-198-108 109-59-195-214-132-281 92v-273l-142 93-9-229-12-26-151-64z">
	</path>
</a>
<a  xlink:href="#macrometropolitanapaulista" name="Metropolitana Paulista" cod="12">
	<path stroke="#fff" stroke-width="1" stroke-linecap="round" stroke-linejoin="round"  d="m156975 129637 168-186 472-31 44 10 109 6 100-21 251 122 287-94 429-175 388-377 444-67 151-288-45-125 320-99 346-305 1197-1233 571 40 158 207 118 71 364-192 286-497 184 64 373-74 498 149 30 36 208-149 136 68 96 66 332-53 287 1-175 180 123 267-44 132 630 837 409-30 364-377 938 83 453-1048 90-17 74-171 154-32-83-205 111-202-27-307-306 28-29-141-129 160-423-355-98 106 41-251-372-279-31-149-218-66 203-408-92-329 195-132-208-83-33-86-353-235-171-616-305-125-24-139 173-417 362 73 130-140 439 271 190-416 649-273 250-382 229 213 465 24 9 3 394 24 254-237 38-325 425-71 53-419 233-431-36-221-28-384-397-85 216-307-278-217 83-74-266-16 61-148-256-102-2-6 189-225-13-313 492 160-85-172 109-195-60-462 350-26 51-129 261 13 166-105 27-181-140-99-374-25 429-407-135-113 202-488 84 6 246-41 19-161 248-190 50 103 188-13 260-139-29-150-97-16 22-337-84-59 149-379-225-112 48-56-65-23-84 242-38-49-206-390 253-350 94 53 190-38 111 276 107 81 95-173 122-12-10-70 41-143 298 164 229 10 121-180 211 74 209 496 151 44 52 148-186 191 122 284 202 11 143 265 96-269 311 6 167-256 237 52-61 69 111 71 65-100 338 83 156-225 326-104-136 139 67 313 211-323 295 75 81 151 351-195 147-315-54-276-438-322-321-402 78-181-298-329-41-62 96-297-118-210 217-353-331-199-67-556 70-284-140-971-227-249-146 15-21-289 417-324 48-375-22-379 175-262 720 140 79-107-388-339-75-258-262 36-169 188-359 117-193-763 75-235 113 150 149 15 347-491 165 8 687 148 463-200 80-211 322 255 248-34 225 138 259-57 54-173 573-94 525 325 216 447 171 230 472 8-111-245 98-221 402-99 527 23 215-208 497 645-342 940 139 533 914-411 70-50 309-58 163-227 526-255 180-587 234-56 62-137 241 68 344 319 583-287-112 487 98 162 196 395 179 276 406-117 273-405 84-67 114 62 188 529-105 301 237 273 279 251 322-80 796 108 288 76 252 210 1063 270 786 26 67 339 347 341 79 1 205-370-392-406 145-449-56-365-540-875-294-876-98-436 85-54 831 35 181-258 814-147 20-507-267-362 104-168 126-6 267-81 179-107 659 32 255 98 132 60 4 107-21 156 282 172 165 409 204 79 40 249 352 328 254 306 117-221-278-318 181-196 4-174 125 51 179-190 426-357 176-155 264 100 328-74 62-9 260-71 73-147 349-82 45-188 177-95 62-79 327-181-77-275-150-98 6-240-61-260-487-741 109-436 619-503 77-237 496-59 181-174 176-177-120-222-159-40-303-327 161-234 474-101 75-136 229-8 113 180 230-100 631 147 404-227 44-86 43-357-325-351-134 2-192 192-431-121-10-476-128-17-133-335 35-378 503 43 156 133 601 38 206-273 105 76 118-137 83 116 233-105-36 119 196 29 69 151-78 71 189 170 244-163 200 192 235-189 194-731 174-96 86 123 193 14 64-127 260-89 133-653 3-159 117-214 347-68 77-113 281-289 110 83 621-111 435 36 133 39 300 141-217 447 174 212 170 315 133-125 455 102 49 677-38 128 516-167 268 354 500 395 748-286 188 4 129-164 83 99 464-183 75-212 34 20 472-168 356 141 466-135 383 131 209-70 706 10 1177-522 254 117 62 204 341 208 303-175-85 294 189 225-113 274 54 494-256 130-104 184 270 32-84 232 162 30 413 517 447 265 120-111 165-158 582-260 51-9 625 319 79-73 430-524 377-82 132 86 127 375 365-13 266 124 125-382 1063-337 237-177 208 122 935-155 332-182 23 68 55 635 162 296-336 537-194 142 462 320 480-410 463-126 417-342 614-108 748 167 45 215 158 76 108 470-314 599-52 329 124 115-70 371-495 412-334-49-127 225-141-9-289 398-920 330-11 80-196 382-267 160 9 315-554 341-128 511-347 149-202 239-401-28-329 174-185 684-145 88-110 365-262 214 11 284-277-38-366 573-296 175 20 350-128 85-61 391-185 132-450-203-116 225-320 175-374 123 94 401-267 485-467 519-349 141-187 64-225 320-252 325-608 153-130 180-94 104-272-9-214 395-224 60-175 399-266-519-51-72-295-342 44-179-371-256-433 43 19 196-295 156-289-454-106-64-216-276-179-89-247-220-291 45-76-346-975 82-160-86-340-34-111-74-198-66-250-16-260 135-355-54-105-40 84-140-166-115-62 18-117 15-84 211-66 199-7 30-137 108 57 322-105 88-42 8-333 17-41-14-157-73-423 160-450-108-152 150-217-114-317 48-356-218-387 54-191-151-87 2-219 132-420-60-30-2-666 264-243-78-216 104-39 144-216 59-35-127-298-146-115 505-141 24-181 221-527-76-105 233-203-140-289 54-277-183-199 1-134 118-8-2-139 252-256 17-164 277-346 223-507 99-109-83-271 119-186 282-388 162-315-9-48 54-130-105-538 265-305 28-136-73-140 196-394 43-133 176-423 37-327 193 111 479 315 192-434 340 203 399-163 688 179 214-27 202-15 33 54 29 160 202 170-23 398 173 30 239-97 109 79 147-200 659 159 47 303 552 257 102 31 7-101 461 156 205-622 255-22 378 198 158-428 418-308 45 152 347-207 90-34 331-129 150 14 79-184 330-237 212-93-41-123 110-63 226-75 458-351 138-188 194-81 30-101 401 192 178 24 146 124 96 335 40-9 223 102 333-80 251 204 319 260 489 389 40 74 220-105 283 57 165 163 7-78 365 164 67 145 421 234 220 145-27 364 346 163 35 112-92 68 6-21 231-735 211-169 37 46 595-214 16-202 314-307-323-397 304-465-207-31 158-562 55-637 105-337-247-40 254-363 439-82 291 178 71-25 68-221 108 49 76-192 218 120 153-198 172 105 122-537 517-114 405-398 21-147-87-77 160-124-186-232-95-39 151 66 206-152 61-159-58-40 228 222 223-61 135-267 66-92 148 83 177 141-54-11 121 201 63 160 505-168 13-173 267-379 53-267 254 36 86-174 46-160-88-105 170-146-41-156 163-221-25-97 103-97-90 127-397-211-88-163 75 130 178-335 115-211-185-251 85 6-241-267 137-471-59-201 248-202 25-179-91-171 85 4-132-178-4-477 265-28 247-226 79-178 336-97-38-256 219-166 31-107 164-838 196-24 143-267 96-430-386-297-190-111 38-71 154-251 105-72 509-360 140-154-197-293-128-53-307-224-298-338-144-527 16-329-148-54-141-401-16-25 113-254-18-237 1177-339-94-350 406-32-226-86-15 10 137-774 678-51 170-176 55-166-31-54-421 168-366 5-389 270-192-7-163 190-127 70-253-46-221-432-278-258 91-41 130-82-77-260 40-105 112-317-147-540 162-166 374-486 481-245-26-527 311 27 212-325 442 375 103-63 131 107 94-68 139-360 198-282-106-406 288-472 103-59-186-368 95-172 128-251-12-238-116-591 74-102-348-562-162-257 193-159-183 32-213 167-204-173-429-188-108 28-108-18-168-156-53-229 166-330-100-138 52-211 421-650 259-508-39-219 306-24 246-163 68-49-71-46-251-192-13-134-224-195-88 52-241-210-366-297-233-107 87-50-98-198 56-75-107-19-137-123 40-246-208-204-350-371-83-280-513-281-240-176 65 9-119-222-190-182 140-203-90-280-385-49 128-276 108-12 127-183 43-89-105-262-125-292 205-127-60-23-397 215-394-225-328 159-410-126-17-176-295-228-62-91-192-337-234-266-302-202-244-27-649-152-307-116-30-150 185-112-281-209 3 96-290 198-144-68-258-218-338-452-120z">
	</path>
</a>
<a  xlink:href="#marilia" name="Marília" cod="09">
	<path stroke="#fff" stroke-width="1" stroke-linecap="round" stroke-linejoin="round"  d="m74635 71330 593-80 456-524 423 77 409-297 121-156 311 2-79-443 43-92 367-47 153-496 340-295 192 18 574-510 242-211 127-294 245-198 139 8 196 77-197-801-315-502 114-491 349-766 330 226 113 352 245-95 123-423 599 11 81-39 744-275 82-374-132-317 38-77 128-375 535-883 149-507-162-817 169-33 257 34 91 414 313 143-17 109 333 131 207 223 533 95 137 239 38-83h306l-28-75 353 72-25 131 380 193 161-189 221 348 260 54 198-172 49-200 196-23 170-78 381 165 42-563 159-98 122 68 82 167 495 139 160-112 145 145 136 212 325 13 357 340 581 45 235 165 132-122 209 201 274-435 133-64 180 110 186 59 8 121 136-257 351-148 351 262 90-86 324 165 449-282 266 35 76 417 262 153 111 338 412 56 110 199 471 171 162 330 283-113 348 245 346-99 310 332 241-28 264 169 102 199 166-10 108 128 14 43 142 108-39 123 132 218 355 99-10 178 137 156 193 8 230 495 346 99 310 337 757 300 269 511 388 277 523 92 57 314 392 387-53 201 103 169 1070 575 471-64 639 441 636 95 1283 440 609 519 207 117 498 40 342 264 433 113 112 164 351 430 253 145 451 461 276 70v366l287 119 38-215 526-859 1015 431 83 228 261-39 59-82 299 432 577 123 152 459 153-5 157-248 268 7 249 218-1 114 412 537 3 500 539-143 578 143-34 370 253 131 272 331 157-10 242-282-131 460 313 172 814 88-149 853 547 268 136 620 259 147 157 275-4 250 929 438 158-121 227 551 454 361 50 376-126 385-41 258 283-303 239 26-213 602-294 419-335 96-255 192-136-35-328 493-252 137-22 264-353 551-641 371-70-18-544 54-293-132-415-13-352-234-79 360-245 826-764 648 7 340 215 20 24 135-508 279-486 46-221-236-63-516-281-262-564 827-304 164-257-67-130-234-245-107-262-507-471 412-61 340-497 102-385 366-43 490-346 303-288-31-427 34-1026 707-8 5-252-46-262-173-505 106 27-174-105-124-497-27-485-201-90 570-224 84-454 433-222-69-297 70-444-378-393 16-208-112-169-54-423 187-140-45-224-390-17-255-258-313-181 231-589 211-510-422-604 4-277-163-560-81-567 878-430-285-146 24-11 928 204 535-608 489-68 42-426 425-434 141-196-728-266-324-110-333-451-158-673-463-318-109-87 279-392 473-249 206-290 216-262-170-668-150-212-210-216 20-141 36-220-152-2-222-249-345-66-578-361-378-186-475 426-763-22-248 499-68 427-235 169-409 351-91 270-332 186-345 677-484 472-81-479-153-560-207-166 133-566-76-610-419-528 75 89-256-129-281 124-695-81-687 140-104 13-300-101-95 616-995-72-60 60-443 184-641 121-78 35-98-205-99-182 135-248 2-64-159-244 8-314-177-15-183-140-36-34-35-467 224-60-196-158-94-840 52-184-76-53-33-329-274-296-78-173-224-154 43-106 202-457-6-83-81-171-127-293-11-493-426-450-445-360-94-43-451-163-77-92-226-443-161-495-344 87-254-139-118-143 37-113-167-395 120-162-331-523 56-164-143-14-164-266-24-20 11-266-27-274-382-232 44-560-423-261-25-212-250-792-143-130-119-204 58-41-10-84-233-1097-234-84-95-656-6-1486-325-468-181-17-156-410-253-527-171z">
	</path>
</a>
<a  xlink:href="#araraquara" name="Araraquara" cod="05">
	<path stroke="#fff" stroke-width="1" stroke-linecap="round" stroke-linejoin="round"  d="m125750 62119-393-330-460-1194 313-49 248-381 302-73 409-291 504-69 143-141 75-386 302-192 87-314 264-199 186-769 312-127 228-295 433-42 318-747 362-244 232-461 215-114 193 254 635 487 440 78 14-139 687-163 834-772 274-113-108-383 66-608 123-166 151 160 180 139 618 3 100-854 1404-847 291 437 545 305 746-92 364 135 106-67 328 451 138-22 186 137 301 34 292-118 104 241 520 339 531-106 89-125 113 53 120 73 450-177 260 62 243 294-74 595 86 578 299 237-66 437 359 23 496-138 340 164 205-44-5 632 39 600-134 465 484 66 403 624 283-246 209-620 315-304 357-83-302-221 332-144 427 160 280-104 509 494 445-44 493-327 244-21 675-26 196-108 252 98 443-166-83-278 325-426 4-17 204 89 343-141 653 70 179-200-10-326 354-24 339 228 78 394 377 324 373 41 593-372 379 88 266-75 204-265 586 44 690-135 1503-263 1143-259 479-499 95-315 335 7 81-82 37 64 487-242 246-95 269 143 53 140 359-32 172-296-34-162 152 228-11 510 165 109 33 184 653 263-102 198 240 66 73 240 83 45 67-149 95 164 309-132 47 416 336 151-198 98 5 101 281 70 90 34-3 45-74 324 421-70-113 158 93 100-133 118 195 135-48 245 337 59 11-209 129-32-67 301 279 113-96 433 358 50-32 209 173-69 55 88 32 253-276 118 133-2 127 172 27 315 141-35 15-147 39-107 65 172 581 160 298-219 107 222 191 6-78-190 260 42-115-164 160 27-28-275 323-135 82-34 25 339 159-16 75 127 137 28 207-290-1 186 140 37-10-150 112 128 203-142 165 264 95-23 59 280 137 21 153 159-284 112-32 124 247-74 129 167-15-135 183 10 14-144 130 64 121-87-97-132 128-141 230 32 181 243 2-192 65 112 248-55-120 361 62 70 149-97 271 64 111 372 109 143 243-35 73 129-169 56-149 368-179-27-206 130-26 181 245 136-418 252 574 312-101 545 221 68 387-166 269 182 175-285 367-9 1015 663 86 66 315-249 630 457 733-122 92 123-71 325 251 200 69 124 255-15 381-121 122-286 140-100 192 32 95 225 201 46 292 530 23-246 214 27 597-290 202 279 79 702 213 205 99 346 351 119 416 386 186 36 111-135h142l185 168 1 195-209 249-363 100-48 103-344 422 173 287-79 200 376 303 912 475-156 562 33 455 82 747-405 267-312 345-289 780-496 167-371-3-251 86-77 210 248 637-278 570-664 577-219-79-166-258-276 38 402 302 190 338 893 767 482 735 384 1203-6 16-269 135-348-20-155 16-307-184-159 87-208 323-11 397-52 105-537 179-557-11-144 173-259 72-7-4-299-94-513 116-253 249-472 91-414 340-83 797-559-1163 103-114-21-369-675 151-252-429-57-473-866-568-335-535-235 99-275 954-132-44-83-258-228-105-651 239-171-3-141-181-384 246-409-164-13 123-148-98-141 196-100-75-502-243-122 31-19-17-27-63-239-238-94-487-511-417-784 217-261-159-113 123-260-50-169-368-497-438-328-399-300 22-277-139-82 112 106 319-59 414 93 741-458 824-469 35-987 864-303-50-127 124-431 53-188-166-1164-390-200-375-465-196-555 342-893 3-357-130 309 720-268-25-474 135-152 319-375-89-537 68-355 213-38-130-180 8-38-139-214-21-354-232-67-282-279-40-266-183-332 89-134-189-323-92 39-151-179-56 49-122-119-45 25-324-130-108 34-327 36-226-256-211 49-155-175-260-173-14-56-134-273 119-22-109-218-29-118-141 1-235-105 29-240-225 78-235-198-137-182-309-204 13-436-199-128-324-210-171 200-419-551-43-211 275-779 247-266 187-220-61-44-250-163-35-52-237-295-334-694-155-304-374-274-27-245-106 21-167-204 14-443-332-409 43 9-111-523-439-205-71-10-313-295-344-217-441-1071-179 13-220-218-316-442-126-119 57-288-181-197 35-268 255-549 100-144-118-172 76-496-81-494-38-154 138 73 90-216 22-276 360-488 203-205-83-241 204-438-424-414-1211-336-224-621-143-1143-336-498-517 82-467 794-930 42-443-111-207-276-149-666 144-335 97-286 131-928 138-1194-608-671-96-711-1048-336-284-394-766 7-708-308-317-429-154-444 65-604 287-159 446z">
	</path>
</a>
<a  xlink:href="#assis" name="Assis" cod="10">
	<path stroke="#fff" stroke-width="1" stroke-linecap="round" stroke-linejoin="round"  d="m61172 93127 76-245 221-175-70-184 116-5 43-225 130-66-130-78-72-327 72-418-80-260 156-383-50-173 145-63-24-119 101 15-81-146 97-66 8-489 175-312-45-221 38-11 56 109 1552-400 436-269 262-306 413-207 981-896 308-79-16 293 153 75 744 14 395-108 898-235 267-185 1348-1-333 269 130 312-338 327 157 316 582 348 360-187 390 32 486 782-50 465-268 243 405 535-5 494 179 956 137 96 358 553-3 613 85 99 95-193 316 96 9-161 201-69-81-112 133-133-90-150 111-60-86-139 97-84 173 170 168-84 39-192 191-24 205 188-35 127 310 231 199-209 504 362 55-187 104 160 199-169 126 193 194-101 113 53 79-135 130 120 205-436-218-452-272-121-90-247 209-1026-239-152-198-168 359-806-516-619 98-144 202-146 70-554 440-514-429-370 173-464-112-396 177-330 272-211 909 485 486-290 4-7-72-697 362-248 386-659 4-585-230-414 298-1180 122-356 239-142 91-291 325-209 209-464 279-257 44-311-315-311 50-203-135-344 228-83-140-126-33-288 1-159 237-42 115-290-221-251-21-373 180-412 193-13 60-151 71-444-164-381-143-203 32-150-196-171-2-621 147-119 466-1149-21-672 205-58 130 119 792 143 212 250 261 25 559 423 233-44 273 382 267 27 20-11 266 23 14 165 164 143 523-56 162 331 395-120 113 167 143-37 139 118-87 254 494 344 444 161 91 226 164 77 43 451 360 94 450 445 493 426 293 11 170 127 84 81 456 5 106-201 154-43 173 224 297 78 329 274 53 33 184 76 839-52 159 94 59 196 468-224 33 35 141 36 15 183 314 177 244-8 64 159 248-2 181-135 206 99-35 98-121 78-184 641-60 443 71 60-615 995 100 95-12 300-141 104 81 687-124 694 130 282-89 256 527-75 611 418 566 77 166-133 560 207 479 153-472 81-677 484-186 345-270 332-351 91-169 409-428 235-499 68 23 248-426 763 185 475 362 378 65 578 249 345 3 222 219 152 142-36 216-20 212 210 667 150 263 170 290-216 249-207 392-472 86-279 318 109 674 463 450 158 111 333 266 324 195 728 435-141 426-425 68-42 607-489-203-535 11-928 146-24 430 285 567-878 560 81 277 162 604-3 509 422 590-211 181-231 258 313 16 254 225 391 140 45 422-187 169 54 209 112 392-16 445 378 297-70 222 69 454-433 223-84 91-570 484 200 497 28 105 124-26 174 504-106 263 173 251 46 8-5 1027-707 427-34 197 403 173 62-8 336 151 53 198 343-23 421 412 718-40 299 804 835 193 334 121-433 398-309 785 175 297 418 235 6 225 147 241-42 128 187 29 612 647 469 160-21-51-219 343-342-71-352 129-343 207-192-117-402 193-81 195-340 174-459 210-31 194-505 266 136 156-76-100-389 291-44 58-235 112-35 125-120-44-329 190-9-5-119 320-70 79-118 162 17 386 892 1061 759 94 278-135 53 91 169 260 503 700 277 117 401 1744 376 345 301-160 57 62 73-189 292 686 331 69 296-715 163 103 137-496 648-384 38 27 258 261 302-140 212 34 213-224 637 260 492-8 554 283 736-258 706 68 181-105 463 258 414 10 256 303 180 461-13 93-145 143 166 533-144 345 25-6 394 162 416 258 235 197 435 260 148-707 445 466 306 82 59 343 163 602 199-102 325 296 160 104 630 732 740-366 134 276 358-9 228-406 126-76 141 170 729-55 811-187 194 34 357-98 276-92 611 143 337-115 334 149 658 122 95 299 15 253 328 334 206 7 548 184 929 186 368-91 170-509 176 468 389-61 383-276 377-112 382 3 228 234 292-103 270 232 247-195 176-368-62 57 181 432 408-28 297-159 125-346-2-160 103-194-180-395-41-87-149-188-39-295 174-109-128-309 124-171-79-206 207-218-83-70-201-226-10-211-196-276 42-273 119-111 227-651 160-120 294 54 161 1189 1130-25 209-227-64-198 116 144 351-485 735 491 338-436 80-271-80-262 140-243-145-341 22-486 327-457-115-179-89-259 95-229-136-397 70-225-67-185 177-386 43-71 126-97 32-242-399-879-617-476 73-302-321-343-126-526-25 15-100-346 28-23-406-140 45-289-116-75-93 101-311-142 39 102-189-207-25 8-30-19-19-109-147 47-77 184-266 171-141 326 25 204 224 124-111-82-164 141-241-16-13-409 149 14-512-287 19-126-277-311 32-33-153 185-116-168-121-39-23-306 76-105 27-41-49-34-152 6-29 546-200 365 145 35-179-171-236 11-169 9-87-523-380-660 54-129-208 43-308 210 124 239-368-47-415-252-436 173-552-76-162-367-777-217-143 62-359-143-79-113-181-38-109 1-15 21-491-32-57-621-981-59-75-199-74 154-265-619-29-164-180 67-164-261 118-207-261-434-216-78-136-59-128 263-660-20-100-408-285-239-17-107-27-358 242-478-130-9 2-364 28-160-240-342-8-78-182-111-263-212-95-231-63-207-278-524 227-522-48-128-60-260-289-160 137-8 1-351-281-462-146-149-455 89-295 126-395 190-187 99-110-10-79-34-89-540-296-366-205-737-143-544-590-2-5-59-139 237-262 156-478-116-445-154-183-498-406-330 76-30 47 50 204 170 507-173 159-72-10-221-58-367-511-444-59-459-200-76 35-92 119-477 621-127 19-288-196-429 67-581 445-183 46h-439l-556-142-445 359-543 216-637-30-403-152-538 166-137-5-96-62-151-391-830-232-474 201h-19l-346 13-179 257-381 139-672-81-162-416-423-377 14-169-676-376-479 67-39 5-335 96-279 91-64 69-6 577 1 9-41 61-233 268-71 25-51-13-454-119-460 107-760-241-57 5-18 1-557 245-442-149-198-173-2-2-94-489-352-217-404-12-701-240-460 282-493 329-34 4-361-362-519-166-359-301-418-42-172 52-254 97-249 329-799 1312-620 281h-135l-229-35-271-307-258-119-598-42-568 117-18 3-288-307 403-1091 7-333-111-127-24-28-612-305-209-427-293-232-284-833-1235-929-269-175-77-26-796 28-239 105-399 174-98-4-72-20-511-554-488-103-38 20-495 267-296 17-63 3-1595-829-1736-161-1280-247-91-38-564-421-341-254-743-162-33-14-35-15-83-57-604-410-365-727-45-47-473-454-346-64-200-15-471 150z">
	</path>
</a>
<a  xlink:href="#valeparaibapaulista" name="Vale do Paraíba Paulista" cod="13">
	<path stroke="#fff" stroke-width="1" stroke-linecap="round" stroke-linejoin="round"  d="m258316 115367-55-21 39-30 52 8zm986-1103 10-15 47-28 9 2 11 12v16l-35 43h-26l-12-4-5-9 2-17zm-27 767 84-43 85-15h51l-10 39-48 16-41 24-28 38-102 27-19-41 27-46zm569 246h-108l18-62 66-68 53 53-30 77zm-603 1227 83-34 22 36-11 40-42 24-48-11-40-26 37-29zm1611-833 137-65 38-31 4 47-19 33-71 62-6 40 20 41-51 40-20-49-30-36-23-40zm-14112 5867-17-26 1-8 7-5 35-6 5 8v20l-14 15zm8862-1323 11 7-15 3-4-5zm-277 127-2-8 7-12 15-13 103-45 42-34 14-1 12 12 49 3v9l-51 46-15 25-37 2-45 22-25-7-50 8-16-7zm5617-4477 17-10 15 12-8 33-10 8-13-2-6-23zm-248 634-42 19 8-46 37-26 38 2 30-41 36-38-14-48 5-43-14-43 64-39 17 68 25 43 49 52 7 42-38 13-35 38-14 45-7 55-152-54zm-103-77 37-17 17 10v22l-13 31-8 6-24 2-16-11-7-30 14-15zm-43339-7344 61-390 127-85-20-351 297-175 366-573 276 38-10-283 261-215 110-365 146-88 184-684 329-173 401 27 202-239 348-149 128-511 553-340-9-316 268-160 195-382 11-80 921-329 288-399 141 9 127-225 335 50 495-413 69-371-124-114 53-330 314-598-108-471-159-76-45-215 743-362 585 141 210-293 295-70-6-245 471-124 382-312 144 64 156-188 147-176 401-19 387-407 75-251 394-209 172 62-115 350 65 99 8 10 362 159 92 169-95 386 128 48 12 76 20 456 312-13 256-114 209-94 195-248 9-296 213-124 71-289 284-150 293 59 190-155 237 130 184-146 216 138 68 416 31 46 260 291 82-25 402-231 270-233-20-182-103-947 370-152 127-252 372 76 38 389 400 71 186 190 285-48-21-174-186-27-61-164-240-126 2-131 22-229 209-244 176 17 133-339-27-372-135-58-26-283-353-584 63-99-11-12-728-68-166-4-712 326-61-2-459 216-279-56-423-428-12-18 255-738 738-168 278-303 552-197 173-191 168-28 84-189 142-152 328-72 480 155 108-37 597-277-123-60-53-228-280-92-275-572-356-65-2-15-21-160-237-145 88-344 217-97 17-162 71-80 234-137 9-108 610 241 542-402 158 36 382 88 44 48-68 239 131 354-169 62-118 296 62 94-292 419 35 139-206 175 350 380 148 64 537-75 916-320 404-541 468-43 162-111-99-158 348-249 124 215 281 107 258 424-542 458-140-22-144 129-74 218 122 31 215 132 726-140 315 4 213-181 252 4 760-644 360 83 412-862 15-61-36-82-159-161 122-38 173 17 619 488 117-51 327 222 60 204 455 78 246 42-5 195 133 155-52 564 325 45 32 4 113-42 766-452 299 45 373-380 407-117 88-158 1214-124 595 79 102-64 159-113 147-104-86-80 219-443-85-230 1013-474 128-122 333-23 267-173 796-230 419-371-43-210-11-52 194-390 306-297 196-22 476-295 211-57 311-85 256-118 380-175 263 101 680-427 625-102 376-188 101 51-62 167 537-120 273 66 285-72 804 280 214-288 586-410 120 10 32 3 748 13 86-43 287 21 287-642 448-111 117-133 362-37 167 153 303-7 350 96 284-355 502-165-38-273 924 100 292 205 462-6 455 335 316 446 321 756 21 37 19 113-128 154-36 303 102 255 250 33 75 218-174 429 452-97 161 221 236 116 188 92 58 38 316 395-22 23-166 166-34 493 19 3 472-314 347 188 79-129 188 203-20 566-147 217 54 556 299 196 70 11 346-100 372 330 171-69 77-211 159 91 177 384 227 93 344-744 304 296 443-165 368 344 122-48 219 117-352 398 67 160 126 61-107-201 102-71 511-16 196 332 128-148 586-769-78-129 16-32 128-49 162 260 414 94 323-212 238 43 123-192 388-179 419 102 286 190 71-21 207-132-176-73-38-271-124-113 425-208 125-253 225 11 396 198 236-53 114 105-307 251 121 124 148-23 16 576 146 79 206-155-64-300 47-124 127 52-47-207 125-66 107 81 428-73 260 262 163-60 201 120 325-27 20 127 292 229 81-171 360-101 560 350 168-174 468 70 189-133 239 406 262-98 82 8 96 9 23 11 12 347 164 120 238-8 203 219-195 296 8 26 508 317 232 383 170 251-159 113-86 203-242 144 64 277-116 174-204 162-365 64-217 37 53 234 111 38-111 231-781 48-462 478 102 195-362 58-220 338 3 320 113 90-82 177 263 94 179-70 16 154 5 56-62 168-62 68-493 81-264 778-44 28-370 147-106-228-308-22-644 375-103 176-51 89-17 13 77-262-191-68-1476 614-406-10-148-158-297 60-46-187-318-9-266 101-147 130-323 481-215 133-211 93-499 203-146-278-161-56 25-196-151-51 140-309-104-155-143-152-320 1-346 167-423 416-419 122-392 373 45 113 1 2-342 127-643-325-764 316-200-96-683 586-185 79-22 24-100 194-13 27-621 398-447-297-434 552-15 10-241-129-150 81-116 1-223-153-223 146-51 41-646 330-69 29-261 461 90 234-5 10-217 171 39 138-130-43-181 138-499-134-29 2-149 112-166-19-18 252-8 106-289 168 294 345-171 309 51 107-17 29-126 211-47 561-261 155 131 237-207 170 27 227-55 187-104 231-5 53 188 60-17 198 120 39-223 325 155 152-75 202 78 127-270 233 92 234-267 92 18 550-23 41-456 131-125 50-58 137-247-7 27 122-230 147-382 87-70 252-32 170-207 194 51 366-233 265 106 246 224 12 100 507 639-6 542 242-98 218 297 187 102 307 100 34-79 321 595-243 64 206 555 295v16l-10 185 225 302-48 330 164 228-48 162 564 108 309 497 228-2 275 191 296 110-191 74-616-116-1054 375-32-217-215-56-256 66-11 134-171 109-435 75-250 187-90-73-377 78-61-53 180-231 42-299-481-260-553-51-615 410 95-231-79-201 242-321-135-349-634-104-294 425-294 174-468 136-194 214-42 444-339 62-68 150-256 109-3 139-227 217-153-110-328 24-446 261-200 372-545-146-360 368-109-2 60-130-201-164-285 121-105 222 137 126-175 4-103 136 57 351 240 309 132 71 529-345 89 48 16 312 501 61-447 94-377-102-223 228-127-108-221 114-320 571v125l209 77-412 481-42 381-138-256 76-554-438-98-216 174 49-246-105-36-147 228-397 193 507 160-79 172 109 45 28 290-246 53 12-177-250 20-10-131-357-226-135 73 50-258-252-56-62-142-432 91-170-240-177 43-114 216 92 69-40 239 310 187-90 381 243 52-115 371-222-88-159 114-115-157-231 102-133-232 92-166-258-262-546 159-467 394-105 337 420 250 61 256 192-5-171 114 149 67 56 265-85 112-167-68-550 69-329 332-257 32 26-81-159-75-177 233-10-244-298-83-160 60-60-129 97-203-127-141-368 64-120-109-684 201-538 423-572 817-102 197-379 170-231-194-367 305-209-126-71-187-234-17-379 390-354 617-77 879 178 754 188 556 253-92 482 45-46 365-396 417 337 796 119 137-75 465 71 96-90 345-105-75-130 125 71 281-479 139-337 241-13-99-246-92-174 180-48-162-565-251-500 296-283 61-32 187-121 28-176 67-62 78-326-8 6-312-756-59 114-330-308-313-332 27 6-405-222-158-766 27-336 172-695 145-122 40-94-121 32-401-338-112-175 48-31-214-459 56-232 195 21-232-204-120-383 17-299 218-150-293-173 35-234-61-196 63-491-190-704 64-173-75-13-129-201-36-1060 225 11-243-257-122-1046 5 1045-900 500-437-143-700 144-347 55 52 195-133 278 131 490-371 627-102 230-348 447-249 223-188 143 78 190-279 210-176-200-494-19-164-133-229-217 181-189-29-164-261-321 163-215-15 138-243 119-168-17-101-179-27 23-87 254-268-321-76-119-239 119-107-164-177 30-444-254-322-48-140-142-85 16-340-386-149-517 40 10-520-256-8-503 254-113-264-526-225-231-355-1297 710-101-72-588 362-359 12-107-133-632-195-350 195-337-111 72-39 130-50-38-179-346-382 345-239 165-552-416-574-109-168-258 23-103-277-215 36-87-50-261-928-242-127-295 219-202-80-98 100-460-220-518-713-314-205-153-368-243-76-367-303-113-76-36-31-144-595-5-120-392-191 71-336-92-47-263 113-425-81-236-407-211-13-36-232 195-270-329-43 70-622-318-14-700-324-289-216 9-269-283-18-121-123-352-219-458-349-280-15-170 122-361-111zm14707 21103-12-37 10-49-10-27 1-13 16-38 34-55 27-19 27-6 23 7 13-1 38-18 88-18 23 18h55l26 26 6 12-1 13-27 68 4 56-42 63-13 67-12 5-35-16-26 7-19 33-19 52-10 6-12-8-23-27-56-11-29-26-32 8-14-25 2-48zm495-544-21 7-19-7-7-16 9-13 18-5 18 6 7 13-6 15zm363 377h-41l3-29 36 1 2 29zm409 293-8-15 11-14 17-7 19 8 9 11-7 17-21 13zm141 56-21 4-20-5-6-16 8-12 18-9 18 10 7 12-5 16zm557-2121-71-49 1-42 32-22 50-17 78-38 50-10 73 44 5 38 17 42 47 36-28 32-34 20-58-38-51-6-34 14-79-5zm245-323-59-14 13-48 32-26 52-7 22-57 39-30 74 8 35 21-52 47-47 28-34 32-22 43-52 2zm1377 391-16-27 19-23 27-14 31 13 17 26-17 25-32 16-30-16zm4526 1531-18-29 13-26-5-34 5-43-15-26-5-18 22-2-7-9 21-18 11-29 23-22 9-31 26-6 27 19 30 2 30 29-1 26-16 32-52 163-32 15-45 34-21-9v-17zm2430-657 33-3 40 11 11 31-39 30-49-14-23-26 28-29zm1164-102-52-8-10-43 51-4 19 36 11 5zm501-54 30-24 36 14 15 12-8 21-46 4-17-1-9-27zm563-318 282-268 104-748 130-39 24-294 140-60 136-276-56-218 123-575 173-360 378-189 389 73 288 235 449 54 81 113 452-49 279 249 148-22 201 239-104 276 312 139 100-63 348 459 133 11-143 193-41 519-198 283 2 95 139-29-41 245-297 183 138 105-24 109 196-8-160 155 65 84 277-85 142 69-323 158-531-216-525 62-396 364-25 366 61-50-32 69-151 105 67 210 582 59 22 131-272 143 159 255 322 1 435 305 151-302 220 227 196-44 153 161-61 123-304-37-66 79 6 486 167 146-133 164 34 253 280-35-230 197-124 335-387 238-517-72-563-673 184-397-334-582-360 144-55-210-291 174-211 59-127-120-241 132-89 66-159 220-251-249-323 347-1269 141-239 173-634 64-490-198-512-589-62-843 148-128 172 3 302-372 234-98 127-277 376-30 106-130-60-64 90-19 51-165 1139-864zm1551 3122-17-36 18-61 26-39 72 6-50 113-16 16-14 5zm845 5 58-67 28 3 17 14-2 21-28 51-22 22-45 12-13-35 8-21zm994-964 7-20 82-28 66 19 30 19 5 23-9 27-45 21-99-2-37-24zm-399-1037-36-39 1-50 8-14 22-10 68-4 33 38-3 38-42 37-26 10-25-7zm1519-1270 29-40 33-9 22 5 41 21 11 13-7 44-18 26-68 35-14-3-29-77v-16zm2273 553-7-20 3-46 12-14 32-23 24-2 14 3 30 75-8 20-33-1-23 14-22 4zm-147-798 386-358 320-66-47 230 775 223-152 317-382-152-439 265-316-242-41-216-105-1zm4218-1990-11-17-3-9 3-10 22-1 14 10 10 11-2 13-19 8zm-7 306 13-214 196-27 119 86-109 201 274-32 18 229-231 184-131-74 38-249-187-103zm-8894-5189-21-4 1-19 15-30 3-38 11-9 22 6 15 20 2 47-18 17-29 10zm521 486 92-212 357-5-64 258zm2454-1559-38 17-11-17 9-24 20-10 28 16zm72-536 19-9 17-16 26 29-3 20-50-4zm1561 1060 221-230 361 297-56 69-192-83-153 137zm3164-1021 65-236 618 255-82 221-482 137-671 562-84-339 119-226-175-247 110-133-11-254 119 145-36 163 169 97 230-7zm1117 501-11-4v-10l22 7v8zm-519-989-3-19 35-45 9 13 33 20-4 9-26 11-12 19-24 19h-9l-4-7 5-19zm3024-4049-125-36 30-39 80-50 45-6 49 1 45 9-17 48-34 29-74 44z">
	</path>
</a>
<a  xlink:href="#litoralsulpaulista" name="Litoral Sul Paulista " cod="14">
	<path stroke="#fff" stroke-width="1" stroke-linecap="round" stroke-linejoin="round"  d="m144833 165421 87-223 182-41 28-260 337-55 309-387-13-377-146-158 293-139-192-206 201-138-15-27-211-217-2-11 17-311 101-132-21-401-176-31 23-244 259-3 137 194 99-260-104-110 34-144 381-158 4-15-107 5 79-168-89-194-526-110 68-241-103-268 171-593 203-143-107-84 107-461 534-490 256-163 419-153 1-360 143-143 166-4-30-355 166-237-50-142 144-36-177-125-201 174-341-139-196 92-92-70 81-161-293-130 249-324 61-906 209-154 184-160 284-242 329-44 396 333 115-318 473-241 187-249-51-372 263-524-63-250 236-331-41-192 426-242 96-214 257-41 62 112 228 1 263-262 61-216 296 41 41-112-132-164-221 47-205-196-499-119-269-465 147-251 355-165 383-141 280 30 462-612-301-445-89-198 1e3 -427 289-248 88-250-59-197 156-158-60-186-257-21-7-246-150-190-277 50-318 346-397-53-155-175 213-297 448-346 3-241 303-240-40-352 295-321-98-548 85-116 79-15 190-61-71-546-131-88-141-329 110-256-369-40-298 99-62-93 765-660 219 131 283-5 95 173 402-22 49 89-183 280 32 262 325 46 402-287 165 74 214-375 352 107 213-50-219-253 13-199 557-267 193-203 142-255 584 155 572-44 460-1 110-211 819-317 542-487h131l-1 107 123-41-49-531 242-157-153-264 120-191 476 92 211-76 143 155 347 51 261-34-24-190 391-49 674-333 76-449-87-227 284-95-179-326 201-265 824-103 171-180 184 37 45 155 91-17 848-659 836 141 49 70 163-67 24-246 220-306 507 39 651-259 210-421 138-52 330 100 229-166 156 53 18 167-28 109 188 108 173 429-166 203-33 213 159 184 257-193 562 162 102 348 591-74 239 116 250 12 172-128 368-95 59 186 472-103 407-289 281 107 361-198 68-139-108-94 63-131-375-103 325-442-27-212 527-311 245 26 487-481 165-374 541-163 316 148 105-112 260-40 82 77 41-130 258-91 432 278 46 220-70 254-190 127 7 163-270 192-5 388-168 367 54 420 166 32 176-55 51-170 774-678-10-138 87 16 32 226 349-406 339 94 237-1177 254 18 25-113 402 16 53 140 329 149 527-16 338 144 225 298 52 307 293 127 154 198 360-140 72-510 251-104 72-154 110-38 297 190 430 386 267-96 24-143 839-196 106-165 167-30 256-219 96 38 179-336 226-80 27-246 477-265 178 3-4 133 171-86 179 92 202-26 201-247 471 59 267-137-6 241 252-85 211 185 334-116-129-177 162-75 211 88-126 397 96 90 97-103 221 25 156-164 147 42 104-170 160 88 174-46-35-86 266-254 379-53 217-70 156 121 569-7 337 95 5 4 631 269 330-152 192-81-68-288 518-81 207 93 27 270 210 122 23 224 712 238 322-421 147-6 236 250v170l155-6 178 156 87 98 81 271 94 14-22 315 330 178 13 36 279 21 89-228 239-24 163 202 241-3 188 165 404-156-97-424 671-35 309-316 247 360 524-108 340 143 75-142 267-92-114-135 234-176 4-130 417-16 130-145-175-96 150-200-21-277-58-67-127 100-246-379 17-173 275-166 186 48 529-349 4-6 366-313 120-72 264 62 100-96-213-244 723-297 615 101 250 267 105 16 51 251 311 147 87 218 17 12 173 140-633 908 39 89 328-23 618-437 306 62 369-37 199 94 455-153 270-216 205-65 81 65 23 48 123 102 513-10 351 430 204 256 249-53 461-51 424-311 381-41 151 428-394 382 58 132-298 381 334 181 37 201-452 945 231 253-3238 1682-2470 1362-509 400-548 158-2194 1395-1446 919-1852 1524-89 197 87 589-162 334-398 302 69 347 231 35-8 239 247 52-149 145 78 228-165-4-22 151-158-83-139 66-90 276-219 123-574 98-936 428-434 427-1425 905-1253 969-264 221-15 277-426 152-852 635 109 199-54 136-744 186-4537 2694-203-9 64 172-949 509-305 437-1418 522-1371 720-2627 1662-1112 833-3718 2923-2149 1909-987 1167-343 655-102 620-677-9 5 301 222 550 158 136 61 218-89 156 112 297-424 352-324 851-7 240 211 114-5 195 113 126-160-2 42-114-47-126-94 10-308 79-502 341-907 821-1750 1325-2081 2054-102 101 33-394 389-449 1931-1679-199-148 64-152-44-32-199-27-183 29-171 200-319-261-65 345 79 113-159 217-421 27-181 95-126-115-494 82-414 240-1127-700-128-205-211-366-469-98-29 5-278-242-191-281 464-242 52-57 279-382-31-352 203-73 164-296-313-27-454-309-1-143-400-487-4-170-1-49-541-651 64-161-183-111 122-542-107-512 163-196 21-236-165 29-516-276-12-168 266-193-285-70 96-171-195-71-98-192-54-27-159-81-183-330-141 146-88 112 129 293-155 35-106-150-194 146-104 222 10 75-154 275 22 112-39 47-6 371-208 71-242-340h-203l-47 212-403 424-120 360-493 435-1-403 290-99 6-547-258-19-142 111-63-114-376 14 23-253-132-259-599-487-112-42-69-217-461-151-505-338-185 287-554 67-1213 651-314 870 27 390-257 1-212 182-86 92-348 674-275 65-227 461-209-54-418-252-234-205-110-197 15-458-22-61-188-142-75-143-15-24-422 10 35-518-249-160 22-310-298-20-2-49-16-139-9-11 7-197 36-92zm50147-19589-13-22 4-21 18-33 18-19 32-8 18 3 66 38 11 21v26l-16 2-47 30 11 9-15 15-28-5-36-14-24-22zm2146 201 16-63 22-49 30-14h96l26 14 24 50-22 61-37 62-48 44-49 4-37-22-28-37 7-49zm136 526-15-87 3-59 41-96 33-5 71 51 18 65-12 124-21 55-30 21-43-18z">
	</path>
</a>
<a  xlink:href="#metropolitanasaopaulo" name="Metropolitana de SP" cod="15">
	<path stroke="#fff" stroke-width="1" stroke-linecap="round" stroke-linejoin="round"  d="m188175 134337 173-267 168-13-160-506-201-62 11-121-141 53-83-177 92-147 267-66 61-135-222-223 40-228 159 58 152-61-66-207 39-150 232 95 124 185 76-160 148 88 398-21 114-405 537-517-105-122 198-172-121-153 193-219-50-75 222-108 25-68-178-71 82-291 363-439 40-254 337 247 637-105 562-55 31-158 465 207 397-304 307 323 202-314 213-16-45-595 169-37 735-211 20-231-67-6-112 91-163-34-364-346-145 26-234-219-145-421-165-67 79-366-163-6-57-165 105-283-75-220-388-40-260-489-204-320 80-250-102-333 9-223-335-40-124-96-24-146-192-178 101-402 81-29 188-195 351-137 75-458 63-226 123-110 93 41 237-213 184-329-14-79 129-150 34-331 207-90-152-347 308-45 428-418-198-158 22-378 622-256-156-204 101-461-31-7-257-102-303-552-159-47 200-659-79-147 97-109-30-239-398-173-170 23-160-202-54-29 15-33 27-203-179-213 162-688-202-399 434-340-315-192-111-479 327-193 423-37 133-176 394-43 140-196 136 72 305-27 538-265 130 105 48-54 315 9 388-162 186-282 271-119 109 83 507-99 346-223 163-278 257-16 139-252 8 2 134-118 198-1 278 183 289-54 203 140 105-233 527 76 181-221 141-24 115-505 298 146 35 127 216-59 39-144 216-104 243 78 666-264 30 2 420 60 219-132 87-2 191 151 387-54 355 218 318-48 217 114 152-150 450 107 423-160 157 74 41 14 333-17 42-8 105-88-58-322 138-108 7-30 66-199 84-211 117-15 62-18 166 115-84 140 105 40 355 53 260-134 250 16 198 66 111 74 340 34 160 86 975-82 76 346 291-45 247 220 179 89 216 276 106 63 289 455 295-156-19-196 433-43 371 256-44 179 295 341 51 73 265 518 176-399 224-59 214-395 272 9 93-104 131-180 607-154 253-324 225-320 187-64 349-141 467-519 266-485-93-401 374-123 320-175 116-225 450 203 185-132 361 111 170-122 279 15 459 349 351 218 121 124 284 18-10 269 290 216 699 324 318 13-70 623 330 43-195 270 35 231 211 13 236 407 426 82 262-113 93 47-72 336 393 191 4 120 144 595 37 31 112 76 368 303 243 76 152 368 314 205 518 712 461 220 98-99 201 80 296-219 242 127 260 928 87 50 215-36 103 277 259-23 109 167 415 575-165 551-345 240 347 381 37 179-129 51-72 39 337 111 350-195 631 195 107 132 360-11 587-362 101 72 1297-710 232 354 525 226 113 264 503-254 257 7-10 521 516-40 387 148-16 341 141 85 49 140 253 322-30 444 164 177-118 106 118 239 322 77-254 268-24 87 180 27 17 100-120 168-138 244 215 15 322-163 164 261 188 29 218-181 133 228 18 165 201 494-210 176-190 279-144-79-222 189-447 249-231 348-627 101-489 372-279-131-195 133-55-52-143 347 143 700-500 436-1046 900-1817 228-2334 681-331 131-254 345-301-109-781 310-200 195 45 184-226 292-209-31 211-151-226-279-256-78-493 107-1329 576-364 312-105 327-156-3-121 138 437-105 130 86-333 204-143 260 43 511-416 176 25 264 110-21-65 79-213 47-131-83-588 560 52 457 153 66 149-122 81 199 124 15-156 67-166 321-346 166-124 321 47 451 124 111-248-32-321 169-95 169-130-68 157-205-295-184-1013 177-601 365-121 184 131 166-153-58-177 98-154 212 34 439-286 265-70-168 170-426-233-82-100-212-303 101-219 255 1-206-140-32-78 123-169-66 77-710 503-204-237-359-373-243-638-137-275 47-405 43-87 79 52 211-123-52-59-319-313 35-112 162 229 20 182 311-139 202-405 110 98 239-82 201 262 222-205-37v207l-284 324-80-46 75-430-542-140-1183 310-1335 515-3315 1529-231-253 452-945-38-201-333-181 298-380-58-132 394-383-151-428-381 41-424 311-461 51-249 53-204-256-351-430-513 11-123-103-23-47-81-66-205 66-270 215-455 154-199-95-369 38-306-62-619 437-327 22-40-89 634-908-173-140-17-11-87-218-311-147-51-252-105-16-250-267-615-101-723 297 213 244-100 96-264-62-120 72-366 313-4 7-529 348-186-47-275 165-17 174 246 379 127-100 57 66 22 277-150 201 175 95-130 146-417 15-4 130-234 176 114 135-267 92-75 142-340-143-524 108-247-360-309 317-671 35 97 423-404 157-188-166-241 3-163-202-239 24-89 228-279-21-13-35-330-179 22-314-94-15-81-271-87-98-178-155-155 5v-169l-236-251-147 7-322 420-712-238-23-224-210-122-27-270-207-93-518 82 68 288-192 81-330 151-631-269-5-4-337-94-569 6-157-121-216 70zm36371-5376-3-15 23-28h24l10 8-2 10-18 22-34 2z">
	</path>
</a>
</g>
</svg>